<svg xmlns="http://www.w3.org/2000/svg" width="1599" height="1277" viewBox="0 0 1599 1277">
  <defs>
    <style>
      .cls-1 {
        fill: #fff;
        fill-rule: evenodd;
        opacity: 0.03;
      }
    </style>
  </defs>
  <path id="Logo" class="cls-1" d="M1116.48,1038.5a232.613,232.613,0,0,0,30.6-15.55c-0.14,1.21-.18,2.47-0.3,3.69-1.04,11.06-4.44,22.36-11.55,31.08-1.69,2.09-4.6,3.6-7.03,2.48a8,8,0,0,1-2.82-2.61c-1.35-1.69-12.69-17.49-8.9-19.09m39.56-20.11a7.324,7.324,0,0,0-1.51,2.16,6.243,6.243,0,0,0-.27,2.24c0.23,9.69,3.72,18.25,9.56,25.88,2.07,2.74,5.99,9.3,9.03,10.72,4.84,2.27,7.59-3.33,9.23-9.28,1.09-4.07,1.69-8.34,2.1-10.32q3.375-16.935,6.72-33.88c5.79-29.164-27.92,5.1-34.86,12.48M978.187,1173.04c-5.23-5.26-11.973-14.92-20.065-16.25a33.246,33.246,0,0,0-7.138,5.78c-3.111,3.1-17.082,21.24-21.793,20.63a145.133,145.133,0,0,0,24.58.81,246.226,246.226,0,0,0,32.473-3.64,30.68,30.68,0,0,1-5.034-4.29q-1.511-1.53-3.023-3.04m63.833-27.18c-0.32-.26-0.65-0.49-0.97-0.72a13.32,13.32,0,0,0-8.23-.6c-3.49.97-6.12,3.75-8.58,6.39-3.08,3.34-6.15,6.65-9.23,9.99a64.413,64.413,0,0,1-5.1,4.97c-1.17,1.64-2.3,3.31-3.51,4.93a67.594,67.594,0,0,1-5.3,6.81c3.41-.68,6.81-1.37,10.23-2.07q27.825-5.655,55.65-11.3c-0.9-.59-1.78-1.15-2.59-1.74q-11.175-8.355-22.37-16.66m-153.808-4.17a92.112,92.112,0,0,1-14.349,19.3,33.386,33.386,0,0,0-2.265,2.5,8.464,8.464,0,0,0-1.511,2.94c-1.618,6.61,10.7,8.21,14.888,8.88,7.462,1.22,27.008,10.95,30.154.27,3.039-10.34-4.818-21.35-9.134-30.16-4.461-9.09-10.609-16.57-17.783-3.73m20.552-108.17c-15.086-3.87-30.675-1.37-44.738,4.87-1.743.77-3.613,1.69-4.368,3.42a7.883,7.883,0,0,0-.287,3.94q2.75,25.98,6.85,51.79c0.286,1.82.72,3.86,2.266,4.83,2.048,1.3,4.711-.02,6.707-1.38,15.751-10.81,32.887-30.09,41.338-47.22,1.744-3.51,5.646-10.52,4.19-14.54-1.585-4.41-7.95-4.66-11.958-5.71m19.654,7.24c-4.352,12.06,7.7,34.36,12.245,45.63,0.737,1.84,1.636,3.84,3.452,4.56,2.175,0.9,4.585-.45,6.545-1.76,12.191-8,22.638-16.92,33.515-26.65,1.313-1.19,3.076-2.45,4.7-1.74a4.517,4.517,0,0,1,1.347,1c1.745,1.7,10.623,13.06,12.663,13.06,5.82,5.57,11.81,11.25,19.24,14.36a8.975,8.975,0,0,0,5.01.92c2.18-.38,3.83-2.07,5.31-3.71,6.33-7.12,10.8-15.67,17.37-22.73,1.47-1.61,3.38-3.26,5.52-2.92a7.038,7.038,0,0,1,3.07,1.76c6.3,5.24,14.06,7.6,19.94,13.73,11.69,11.91,19.57-10.74,26.17-19.02,1.06-1.32,4.22-9.53,6.29-14.09,0.83-1.8,1.47-3.03,1.74-3.04a265.7,265.7,0,0,1-75.23,17.99c-37.454,3.12-73.308-7.11-108.892-17.35M1247.78,671.976c3.81,23.616-4.01,46.024-19.41,63.965-16.9,19.689-41.4,32.137-67.24,23.454-18.63-6.286-27.59-26.245-44.92-33.722-4.66-2.017-9.92-1.709-14.96-2.268-5.05-.578-10.54-2.486-12.77-7.044-2.23-4.539-.32-10.2,3.1-13.888,3.43-3.712,8.09-5.945,12.51-8.376,26.32-14.393,47.36-39.3,68.17-60.525,17.75-18.1,36.07-39.161,61.15-42.692,2.63-.361,5.45-0.487,7.71.863,4.21,2.579,4.16,8.936,1.86,13.3-2.32,4.376-6.21,7.709-8.6,12.032-8.13,14.771,10.9,39.3,13.4,54.9m-48.5-23.057a21.151,21.151,0,0,0-4.22,2.576,70.456,70.456,0,0,0-6.84,6.465,150.193,150.193,0,0,1-41.96,30.029c-17.26,8.306-17.07,21.22-7.97,36.713,3.53,5.98,8.29,11.835,14.64,12.844,7.33,1.134,14.26-4.684,18.73-11.457,4.48-6.756,7.43-14.7,12.36-21.04,4.91-6.341,12.89-10.934,19.76-7.872,8.68,3.872-4.8,27.921-9.55,30.965-6.94,4.449-26.4.685-25.37,15.347,9.87,2.4,21.72,4.3,31.21-.81a48.3,48.3,0,0,0,19.51-20.265c7.59-14.574,16.64-90.086-20.3-73.495m-563.3-3.963c-5.826.685-11.76,1.747-16.759,4.792-5,3.027-8.954,8.429-8.756,14.284,0.179,6.143,4.981,11.493,10.716,13.619,14.924,5.547,41.374-16.248,43.658,9.961,1.133,12.969-10.285,18.914-16.183,28.839-17.549,29.561-2.391,66.669,23.392,85.24,40.423,29.11,131.407,21.383,135.7-43.972a49.123,49.123,0,0,1-7.714,3.586c-12.982,4.683-27.672,16.5-41.932,14a25.466,25.466,0,0,1-18.556-14.052c-2-4.395-2.609-9.4-5.214-13.491-5.467-8.645-19.69-11.169-21.847,1.279-1.4,8.105,5.5,15.24,12.513,19.543a72.077,72.077,0,0,0,18.953,8.233c3.381,0.919,6.887,1.6,9.89,3.4,3.021,1.8,5.5,4.972,5.269,8.484-1.115,17.978-34.632,10.5-43.73,7.062a82.358,82.358,0,0,1-40.925-34.01c-6.707-11.167-11.058-24.354-8.937-37.215,2.14-12.843,11.994-24.895,24.886-26.624,4.172-.593,8.433-0.072,12.605.451,22.386,2.918,41.914,7.512,62.5,16.338,2.931,1.261,5.88,2.522,8.864,3.639,18.917,9.493,42.525,7.583,62.88,6.393,1.834-.107,3.812-0.27,5.321-1.331,3.148-2.217,2.555-7.459-.234-10.107-5.988-5.673-16-3.223-23.356-3.981-8.936-.881-17.639-4.087-25.858-7.654-17.332-7.531-32.939-18.5-48.331-29.326-31.18-21.959-71.043-31.848-108.821-27.381m962.815,14.158c-1.87,11.889-72.2,56.454-81.73,50.113a57.8,57.8,0,0,0,14.28,6.936l54.03,17.527-47.47,31.182c-40.4,26.57-76.31,61.281-103.45,101.432-12.62,18.663-17.45,36.1-36.82,50.133-16.33,11.815-35.42,19.418-53.47,28.1a365.466,365.466,0,0,0-78.71,51.427c-32.74,28.035-57.39,78.285-52.03,122.5,4.62,38.13,11.56,71.65-18.61,102.22-17.55,17.76-42.37,28.88-66.34,34.64-22.6,5.44-44.39,4.89-67.07,8.7-55.75,9.42-110.434,18.09-166.967,9.42-26.342-4.05-52.883-10.08-76-23.36-11.939-6.86-22.766-15.55-34.434-22.87-11.563-7.25-23.879-13.12-36.2-18.99q-21.63-10.29-43.208-20.59c-35.082-16.72-69.732-20.25-108.155-22.41-110.044-6.2-225.718-3.08-332.019-36.03-85.608-26.55-165.246-69.8-239.705-119.26-4.045-2.71-12.5-8.31-17.369-18.683-9.135-19.419,1.187-37.324,4.585-43.232,16.759-29.039,39.594-55.807,67.86-79.6,1.834-1.55,4.279-3.73,7.156-6.269,2.769-2.467,5.538-4.881,8.271-7.26L50.55,847.193c-7.408-1.3-17.567-3.026-27.421-8.809C8.186,829.575-.66,814.193.023,798.214c1.295-30.587,31.466-48.367,53.529-61.336,5.466-3.242,11.67-6.9,14.259-9.007,9.728-8,13.917-16.319,8.271-37.413C48.068,586.123,35.877,490.869,38.772,399.217c1.87-59.12,9.782-109.521,24.166-154.141C76.55,203,101.526,175.238,141.516,157.71a164.159,164.159,0,0,1,67.086-13.9c37.635,0,73.2,11.618,107.6,22.877,9.224,3.007,18.736,6.123,28.05,8.933,1.96,0.595,3.9,1.207,5.77,1.82C394.74,83.53,539.633,25.113,781.243,3.641c27.293-2.431,55.921-3.657,85.05-3.657,106.214,0,346.247,17.888,424.257,172.821,3.78-2.737,7.7-5.422,11.66-8.087,23.43-15.636,48.4-28.8,51.17-30.263,16.87-8.826,31.93-12.772,48.87-12.772,8.27,0,17.07.954,28.52,3.062,104.78,19.383,130.83,203.535,131.91,211.371,5.99,44.367,4.78,92.733-3.58,143.783-1.2,7.4-2.55,15-3.94,22.7-5.34,29.758-10.86,60.544-8.61,87.456,1.06,12.556,10.41,24.191,20.03,31.848,6.8,5.423,14.84,9.15,21.5,14.7,6.66,5.585,12.07,13.924,10.71,22.516M1203.54,935.442a5.4,5.4,0,0,0-3.18,1.133c-5.86,3.837-9.38,10.934-12.96,17.87-0.87,1.658-1.71,3.278-2.61,4.863-13.81,24.5-33.77,28.211-55.08,37.09a281.927,281.927,0,0,1-71.04,19.272c-64.442,8.67-125.757-28.151-188.457-6.79-47.272,16.12-75.79,53.09-110.961,86.1-2.535,2.37-5.2,4.98-5.9,8.36-1.439,6.88,5.43,12.31,11,16.58a89.913,89.913,0,0,1,17.981,18.37c9.98,13.58,19.22,27.94,33.571,37.34,18.268,11.98,37.472,23.91,57.287,33.16a221.978,221.978,0,0,0,92.045,20.7c23.571,0.18,46.947-3.4,70.217-6.97q54.315-8.34,108.6-16.7c12.5-1.91,25.77-4.18,35.07-12.57,13.27-12.02,8.32-30.27-6.82-37.85-17.33-8.68-39.68-4.47-57.45-.86l-29.13,5.91c2.95-5.52,6.53-10.79,9.84-16.05,1.74-2.78,3.67-5.44,5.43-8.18,1.58-2.49,2.43-5.33,4.48-7.58,1.96-2.17,4.89-3.68,7.76-3.21,2.25,0.38,4.14,1.82,6.23,2.66a58.456,58.456,0,0,1,4.49,3.88c3.96,3.67,9.49,7.31,14.37,5,2.17-1.04,3.68-3.09,5.1-5.07,1.71-2.37,3.47-4.83,4.19-7.68,2.32-9.01-6.99-20.01-12.26-26.46-5.03-6.2-15.93-11.35-17.48-19.73a2.237,2.237,0,0,1,1.59-2.99c3.88-1.53,8.25.17,12.44-.05,6.26-.31,11.63-5.01,14.56-10.57,2.45-4.63,4.52-5.84,8.92-2.43,7.12,5.49,13.79,16.87,24.17,15.07,8.04-1.4,11.58-10.75,13.47-18.71,2.14-9.03,27.09-121.757,10.51-122.908m-86.77-18.753c-1.24,3.6-2.9,7.151-3.08,10.935-0.36,7.367,7,13.33,13.92,13.49,7.57,0.162,14.01-5.62,17.17-12.086,9.46-19.22,6.3-54.924-2.37-74.071-12.61-27.778-41.43-41.017-70.25-44.854-47.42-6.3-98.484,7.4-139.715,30.731-18.738,10.591-43.228,26.7-45.51,50.456-2.068,21.4,19.438,46.367,34.434,59.156,16.489,14.05,32.348,16.284,53.3,12.5,7.48-1.37,15.247-6.105,16.56-13.617,1.149-6.612-3.236-13.187-8.954-16.682-5.7-3.477-12.517-4.557-19.132-5.565-1.908-4.792,1.223-10.394,5.646-13.024,4.441-2.648,9.8-3.044,14.922-3.387,6.871-.433,13.92-0.883,20.463,1.225a16.971,16.971,0,0,1,6.92,3.927,28.311,28.311,0,0,1,4.45,6.773c8.3,15.33,32.4,46.673,53.36,38.242,9.93-3.981,11.22-15.364,13.18-24.624,2.54-11.818,3.29-22.174,11.4-31.956a14.381,14.381,0,0,1,3.76-3.478,13.624,13.624,0,0,1,6.71-1.528c5.12-.074,10.88,1.691,13.09,6.322,1.65,3.422.93,7.511-.27,11.114M907.4,974.116c-0.234.324-.54,0.666-0.811,1.008,0.667-.036,1.35-0.072,2.034-0.089-0.414-.29-0.81-0.631-1.223-0.919m485.5-448.679c4.64,4.106,12.07,15.6,19.31,11.979a7.637,7.637,0,0,0,1.57-1.009c6.49-5.278,5.41-16.842,5.19-24.1-0.32-12.719-.01-25.454.65-38.153,1.26-24.606,3.8-49.122,5.05-73.73,1.34-26.209,34.01-140.649,1.62-150.411-5.23-1.567-10.7,1.639-13.93,6.195a20.326,20.326,0,0,0-1.48,2.5c-2.77,5.782-2.96,12.413-3.97,18.771-5.52,34.567-34.83,59.407-60.65,82.987-32.29,29.524-70.85,78.845-28.97,111.4,16.6,12.879,34.63,23.579,51.93,35.449a239.9,239.9,0,0,1,23.68,18.123M1575,649.8c-29.53,3.892-53.05-27.72-55.55-57.461-3.16-37.882,6.73-79.619,12.82-116.836,7.32-44.8,9.53-90.642,3.46-135.731-7.9-58.344-41.85-175.631-109.9-188.222-22.89-4.233-38.23-4.251-59.86,7.061-12.09,6.341-89.44,48.33-84.82,66.308C1232.48,35.651,938.431,17.026,783.634,30.786,671.432,40.75,413.045,73.407,369.1,202.618c-1.333,3.856-2.428,7.763-3.38,11.726-7.463-4.809-16.993-8.935-29.291-12.627-61.873-18.589-120.725-46.763-184-19.04-33.858,14.825-52.684,36.981-63.6,70.793-15.23,47.178-21.325,97.2-22.872,146.593-3.038,96.173,11.6,190.924,36.394,283.3,7.084,26.48,4.207,47.934-17.316,65.605-14.78,12.123-56.91,28.352-57.845,50.4-0.27,6.414,4.189,12.25,9.691,15.492,5.52,3.262,11.976,4.378,18.287,5.477Q113.483,830.358,171.8,840.4c-19.006-3.241-61.063,37.577-74.513,48.889-24.472,20.571-45.779,44.584-61.8,72.36-3.183,5.512-6.239,12.232-3.524,18,1.565,3.314,4.729,5.53,7.786,7.548C161.816,1068.2,288.186,1126.2,436.386,1130.6c19.149-3.59,12.8-6.29,30.8-10.83-8-28.03,14.025-18.62-67.3-24.57-53.045-3.87-108.407-15.99-156.668-35.9-43.047-17.72-78.793-41.02-108.173-77.2-8.506-10.5-14.116-24.12-12.084-37.467,1.87-12.322,9.8-22.769,17.927-32.191,33.768-39.2,117.164-97.9,14.69-110.548-12.964-1.6-25.3-2.072-32.473-3.081-29.777-3.729-20.121-22.48-5.215-38.474,16.669-17.872,39.541-31.507,37.437-59.23-1.385-18.23-9.674-35.144-17.8-51.537C104.8,583.6,104.4,501.7,111.415,429.118c5.448-56.724,3.075-148.249,60.309-179.864,55.83-30.837,131.926,24.049,180.529,52.527a94.408,94.408,0,0,0,13.4,6.954,454.527,454.527,0,0,0,81.094,198.059c21.955,30.225,48.728,60.271,52.055,97.47,3.684,41.286-22.728,79.26-27.817,120.383-4.711,37.954,9.314,76.324,30.928,107.829,23.049,33.614,57.575,74.215,95.406,88.752,30.155,11.6,68.309,13.276,100.009,18.77,31.163,5.386,62.666,8.448,94.1,11.817,26.972,2.9,60.165,13.673,86.649,9.745,3.526-.5,7.732-1.981,8.183-5.494a7.947,7.947,0,0,0-1.564-5.027c-11.815-18.841-28.394-24.389-32.368-49.716-8.449-53.8,42.078-82.447,87.318-98.931,74.012-26.929,8.648-81.634-14.655-123.066a525.482,525.482,0,0,1-59.913-171.2c-12.784-77.637-13.127-158.41-42.436-232.5-15.354-38.838-39.413-73.009-69.316-102.011a499.993,499.993,0,0,0-48.566-40.765c-10.878-8.141-47.184-23.4-34.613-40.475,4.3-5.817,11.525-8.574,18.376-10.9,92.261-31.236,192.269-35.341,288.7-21.779,6.707,0.937,13.827,2.163,18.844,6.7,16.058,14.536-24.13,75.908-30.909,92.228a239.2,239.2,0,0,0-18.2,94.7c0.847,61.625,25.3,118.908,44.685,176.334,19.221,56.958,19.491,113.016,36.591,169.669,6.44,25.019,9.65,50.115,5.02,75.657-3.17,17.366-6.53,34.838-7.05,52.509-0.61,19.652-2.52,38.3,17.28,44.043,24.38,7.061,49.55,7.44,73,18.374,21.51,10.033,38.89,26.965,47.49,49.319,6.43,16.789-.04,58.508,24.02,61.642,25.98,3.387,71.06-53.679,84.24-73.35,25.52-38.062,33.61-84.106,35.68-129.156,3.54-78.161-33.75-148.935-37.71-225.924-2.05-40.136,5.5-79.819,11.15-119.376,2.57-17.995,2.1-35.415,11.29-50.419,10.3-16.861,30.84-32.1,44.59-46.421,25.07-26.119,75.63-76.343,108.02-41.2,47.48,51.463,66.6,132.344,64.33,201.119-2.21,67.442-30.44,137.91-54.32,200.131-12.46,32.477-19.76,66.683-26.99,100.7q-17.4,81.788-34.79,163.543A404.977,404.977,0,0,1,1522.99,742.1a87.552,87.552,0,0,1-52.14-46.726A363.7,363.7,0,0,0,1575,649.8M880.354,912.707l0.718,1.5,0.557,1.081c-0.448-.846-0.861-1.71-1.275-2.576M356.91,473.991c-17.586-32.839-39.684-72.4-70.5-94.985-31.43-23.058-58.87-34.748-77.75-73.189-2.3-4.683-4.764-9.89-9.529-12a11.022,11.022,0,0,0-3.974-.955c-9.045-.305-16.345,11.87-18.952,21.923a430.061,430.061,0,0,0-10.195,162.444c2.121,16.5,5.232,32.966,10.77,48.656,6.258,17.688,39.361,91.58,63.311,88.624,13.738-1.692,39.089-58.651,51.262-71.8,9.945-10.736,75.073-50.978,65.561-68.721"/>
</svg>
