<svg xmlns="http://www.w3.org/2000/svg" width="976" height="910" viewBox="0 0 976 910">
  <metadata><?xpacket begin="﻿" id="W5M0MpCehiHzreSzNTczkc9d"?>
<x:xmpmeta xmlns:x="adobe:ns:meta/" x:xmptk="Adobe XMP Core 5.6-c142 79.160924, 2017/07/13-01:06:39        ">
   <rdf:RDF xmlns:rdf="http://www.w3.org/1999/02/22-rdf-syntax-ns#">
      <rdf:Description rdf:about=""/>
   </rdf:RDF>
</x:xmpmeta>
                                                                                                    
                                                                                                    
                                                                                                    
                                                                                                    
                                                                                                    
                                                                                                    
                                                                                                    
                                                                                                    
                                                                                                    
                                                                                                    
                                                                                                    
                                                                                                    
                                                                                                    
                                                                                                    
                                                                                                    
                                                                                                    
                                                                                                    
                                                                                                    
                                                                                                    
                                                                                                    
                           
<?xpacket end="w"?></metadata>
<defs>
    <style>
      .cls-1 {
        fill: #e7e7e7;
        fill-rule: evenodd;
      }
    </style>
  </defs>
  <path id="Logo" class="cls-1" d="M24.416,286.775C1.209,269.893-19.062,261.305-33,233.147c-1.7-3.443-3.516-7.245-7.044-8.78a8.113,8.113,0,0,0-2.925-.7c-6.68-.244-12.066,8.7-13.995,16.063A312.7,312.7,0,0,0-64.5,358.745c1.566,12.095,3.86,24.177,7.959,35.658,4.617,12.966,29.056,67.093,46.755,64.943,10.136-1.229,28.863-42.979,37.856-52.591,7.347-7.885,55.429-37.361,48.416-50.365-12.979-24.075-29.328-53.065-52.068-69.615M855.807,402.838a4.993,4.993,0,0,0,1.142-.742c4.782-3.852,3.993-12.339,3.849-17.637-0.25-9.318-.01-18.662.465-27.967,0.935-18.033,2.824-35.978,3.736-54.012,0.975-19.225,25.115-103.071,1.193-110.214-3.859-1.164-7.9,1.2-10.28,4.544a12.15,12.15,0,0,0-1.09,1.8c-2.054,4.237-2.2,9.114-2.946,13.747C847.8,237.7,826.169,255.929,807.1,273.183c-23.861,21.631-52.327,57.788-21.4,81.632,12.252,9.446,25.573,17.293,38.332,25.958a185.336,185.336,0,0,1,17.5,13.3c3.424,3.008,8.912,11.431,14.274,8.768m-391.836,276.9c-0.322-.627-0.643-1.242-0.934-1.869l0.53,1.089ZM899.111,518.58a268.309,268.309,0,0,0,76.9-33.379C954.2,488.055,936.832,464.888,935,443.117c-2.356-27.774,4.959-58.364,9.461-85.639,5.4-32.8,7.044-66.4,2.54-99.437-5.829-42.775-30.882-128.708-81.144-137.937-16.911-3.1-28.23-3.109-44.194,5.2-8.933,4.621-66.065,35.39-62.65,48.547C723.072,35.183,505.919,21.513,391.616,31.612,308.748,38.92,117.937,62.867,85.475,157.517c-0.974,2.841-1.784,5.7-2.49,8.6-5.508-3.532-12.553-6.553-21.63-9.266-45.7-13.618-89.154-34.238-135.89-13.938-25,10.866-38.893,27.07-46.954,51.875-11.256,34.558-15.749,71.24-16.9,107.424-2.242,70.458,8.557,139.894,26.879,207.6,5.25,19.4,3.111,35.108-12.791,48.048-10.9,8.883-42.016,20.773-42.711,36.952-0.2,4.684,3.091,8.972,7.157,11.34s8.84,3.212,13.486,4.018q43.074,7.335,86.148,14.694C-74.255,622.5-105.336,652.4-115.264,660.7c-18.062,15.052-33.789,32.663-45.625,53.026-2.356,4.045-4.607,8.934-2.615,13.171,1.153,2.432,3.507,4.057,5.769,5.555C-67.6,791.8,25.721,834.284,135.166,837.523c14.142-2.624,9.453-4.608,22.742-7.948-5.9-20.543,10.364-13.632-49.7-18-39.16-2.854-80.046-11.724-115.7-26.3-31.765-12.99-58.168-30.052-79.86-56.585-6.3-7.679-10.425-17.662-8.931-27.466,1.378-9,7.24-16.639,13.236-23.577,24.94-28.7,86.531-71.713,10.84-80.98-9.575-1.19-18.673-1.523-23.973-2.252-21.992-2.752-14.847-16.511-3.85-28.209,12.316-13.107,29.215-23.09,27.649-43.4-1.027-13.362-7.138-25.752-13.144-37.757-24.161-48.368-24.463-108.37-19.3-161.576,4.046-41.546,2.282-108.589,44.547-131.755,41.237-22.6,97.434,17.612,133.318,38.461a68.562,68.562,0,0,0,9.9,5.108,331.8,331.8,0,0,0,59.878,145.141c16.216,22.13,35.988,44.145,38.438,71.42,2.717,30.257-16.787,58.057-20.542,88.225-3.465,27.8,6.889,55.906,22.855,79,17.012,24.613,42.512,54.371,70.45,65.058,22.275,8.485,50.439,9.7,73.843,13.734,23.02,3.942,46.289,6.195,69.508,8.652,19.907,2.125,44.421,10.021,63.977,7.154,2.593-.383,5.706-1.459,6.047-4.031a5.7,5.7,0,0,0-1.162-3.687c-8.724-13.81-20.965-17.854-23.9-36.438C436.092,630.1,473.4,609.1,506.813,597.04c54.661-19.762,6.379-59.836-10.831-90.183a383.456,383.456,0,0,1-44.236-125.47c-9.441-56.88-9.7-116.089-31.331-170.37-11.349-28.465-29.12-53.5-51.195-74.747A366.291,366.291,0,0,0,333.345,106.4c-8.03-5.964-34.846-17.176-25.55-29.643,3.175-4.288,8.507-6.31,13.559-8,68.146-22.9,141.989-25.893,213.21-15.948,4.958,0.679,10.2,1.574,13.91,4.889,11.858,10.636-17.812,55.639-22.823,67.605a174.041,174.041,0,0,0-13.435,69.359c0.623,45.181,18.673,87.137,32.991,129.233,14.2,41.738,14.389,82.81,27.023,124.318,4.763,18.341,7.128,36.734,3.7,55.459-2.324,12.722-4.812,25.521-5.218,38.474-0.426,14.4-1.836,28.056,12.771,32.267,18.02,5.17,36.611,5.452,53.915,13.464,15.882,7.373,28.726,19.762,35.064,36.145,4.761,12.3-.021,42.864,17.75,45.169,19.182,2.47,52.473-39.345,62.2-53.744,18.85-27.9,24.836-61.641,26.339-94.637,2.625-57.289-24.917-109.151-27.833-165.583-1.525-29.387,4.057-58.454,8.227-87.456,1.889-13.171,1.556-25.957,8.33-36.939,7.636-12.377,22.793-23.512,32.939-34.02,18.517-19.147,55.853-55.932,79.775-30.206,35.055,37.745,49.185,96.98,47.514,147.382-1.649,49.431-22.481,101.063-40.126,146.666-9.2,23.781-14.586,48.842-19.931,73.761q-12.836,59.938-25.684,119.851A297.687,297.687,0,0,1,937.6,552.857a64.475,64.475,0,0,1-38.487-34.277M362.923,501.725c11.37,7.948,22.885,15.96,35.7,21.476,6.07,2.611,12.489,4.966,19.089,5.632,5.437,0.537,12.832-1.254,17.252,2.918,2.065,1.92,2.5,5.76.176,7.372a7.428,7.428,0,0,1-3.94,1c-15.022.87-32.473,2.252-46.427-4.685-2.208-.844-4.378-1.753-6.556-2.688-15.2-6.45-29.619-9.816-46.143-11.941a35.551,35.551,0,0,0-9.316-.346c-9.513,1.28-16.8,10.1-18.373,19.531-1.579,9.408,1.649,19.084,6.6,27.263a60.765,60.765,0,0,0,30.21,24.907c6.742,2.522,31.474,7.986,32.314-5.183,0.157-2.56-1.67-4.916-3.891-6.208s-4.812-1.818-7.3-2.509a53.084,53.084,0,0,1-14.017-6.015c-5.165-3.174-10.261-8.4-9.232-14.335,1.6-9.1,12.085-7.271,16.143-.935,1.907,3.021,2.375,6.681,3.837,9.907a18.7,18.7,0,0,0,13.715,10.265c10.529,1.869,21.36-6.809,30.956-10.227a38.666,38.666,0,0,0,5.694-2.624c-3.173,47.856-70.356,53.539-100.212,32.216-19.037-13.605-30.24-40.817-17.284-62.46,4.367-7.283,12.812-11.647,11.971-21.131-1.69-19.212-21.225-3.226-32.251-7.321-4.245-1.55-7.771-5.479-7.918-9.958-0.133-4.3,2.772-8.268,6.474-10.483,3.695-2.24,8.071-3,12.356-3.52a118.449,118.449,0,0,1,80.38,20.083m357.118,46.614c-12.468,14.425-30.584,23.55-49.67,17.164-13.736-4.583-20.354-19.238-33.168-24.7-3.432-1.459-7.333-1.254-11.058-1.677s-7.78-1.792-9.429-5.145c-1.629-3.327-.217-7.462,2.3-10.175s5.974-4.364,9.234-6.131c19.431-10.547,34.981-28.8,50.335-44.349,13.123-13.3,26.63-28.721,45.17-31.307,1.928-.243,4.025-0.345,5.683.64,3.124,1.895,3.081,6.566,1.38,9.741-1.71,3.212-4.585,5.657-6.338,8.844-6.006,10.815,8.039,28.785,9.886,40.227,2.8,17.292-2.957,33.713-14.327,46.871m-24.608-61.9a50.2,50.2,0,0,0-5.041,4.749,111.469,111.469,0,0,1-30.987,22.014c-12.75,6.055-12.606,15.538-5.883,26.892,2.593,4.39,6.11,8.677,10.788,9.407,5.417,0.819,10.552-3.444,13.841-8.4s5.488-10.777,9.128-15.411c3.622-4.659,9.514-8.025,14.586-5.772,6.422,2.841-3.537,20.453-7.044,22.692-5.123,3.251-19.492.5-18.735,11.238,7.292,1.754,16.049,3.149,23.04-.6a35.377,35.377,0,0,0,14.41-14.846c5.614-10.649,12.305-66.006-14.981-53.846a14.9,14.9,0,0,0-3.122,1.881m6.258,208.063a4.148,4.148,0,0,0-2.336.819c-4.335,2.842-6.939,8.038-9.584,13.12-0.633,1.2-1.266,2.405-1.93,3.571-10.178,17.931-24.929,20.657-40.666,27.185a210.6,210.6,0,0,1-52.453,14.117c-47.6,6.336-92.87-20.645-139.179-4.979-34.908,11.8-55.979,38.871-81.956,63.075-1.857,1.74-3.828,3.66-4.346,6.143-1.059,5.043,4,9.011,8.133,12.147a67.518,67.518,0,0,1,13.279,13.438c7.366,9.971,14.192,20.492,24.794,27.39,13.486,8.768,27.667,17.523,42.305,24.293A165.38,165.38,0,0,0,525.725,910c17.387,0.116,34.66-2.508,51.85-5.119q40.1-6.124,80.2-12.237c9.233-1.395,19.026-3.084,25.883-9.227,9.793-8.794,6.152-22.168-5.021-27.711-12.812-6.361-29.317-3.276-42.431-.64q-10.752,2.171-21.5,4.314c2.178-4.045,4.814-7.9,7.262-11.75,1.286-2.01,2.707-3.98,4-5.99,1.173-1.83,1.794-3.917,3.31-5.568a6.71,6.71,0,0,1,5.747-2.342c1.65,0.282,3.05,1.318,4.586,1.945,1.172,0.9,2.281,1.895,3.32,2.855,2.925,2.7,7,5.337,10.6,3.674a10.73,10.73,0,0,0,3.775-3.738,17.323,17.323,0,0,0,3.092-5.619c1.7-6.6-5.166-14.668-9.057-19.391-3.724-4.543-11.764-8.306-12.894-14.45a2.117,2.117,0,0,1,.124-1.459,2.085,2.085,0,0,1,1.027-.742c2.874-1.1,6.111.1,9.192-.051,4.626-.218,8.6-3.648,10.758-7.744,1.8-3.4,3.34-4.275,6.588-1.779,5.259,4.045,10.176,12.389,17.853,11.058,5.935-1.036,8.548-7.884,9.928-13.708,1.587-6.591,20.021-89.248,7.771-90.08M488.708,870.494c-2.313,7.806-16.743.678-22.261-.205-3.1-.5-12.19-1.677-11-6.5a6.011,6.011,0,0,1,1.121-2.163c0.5-.641,1.1-1.242,1.671-1.844a67.7,67.7,0,0,0,10.59-14.13c5.3-9.407,9.836-3.942,13.145,2.752,3.174,6.438,8.974,14.5,6.732,22.092m1.05-89.288c-6.256,12.582-18.914,26.712-30.543,34.609-1.472,1-3.434,1.972-4.949,1.011-1.151-.729-1.463-2.176-1.669-3.507q-3.049-18.948-5.064-37.974a5.737,5.737,0,0,1,.209-2.88c0.57-1.268,1.95-1.946,3.225-2.522,10.385-4.556,21.89-6.387,33.053-3.545,2.946,0.755,7.645.947,8.839,4.173,1.069,2.93-1.826,8.076-3.1,10.635m8.766-9.509c26.286,7.5,52.742,15,80.419,12.722a198.045,198.045,0,0,0,55.553-13.2c-0.206,0-.683.909-1.286,2.214-1.534,3.367-3.87,9.382-4.637,10.342-4.886,6.067-10.7,22.668-19.336,13.939-4.337-4.5-10.064-6.234-14.722-10.061a4.962,4.962,0,0,0-2.262-1.293c-1.6-.268-2.987.973-4.087,2.125-4.844,5.184-8.154,11.443-12.822,16.665a7.508,7.508,0,0,1-3.912,2.726,6.8,6.8,0,0,1-3.723-.679c-5.468-2.278-9.908-6.45-14.2-10.52-1.5,0-8.051-8.333-9.347-9.561a3.257,3.257,0,0,0-1-.756c-1.192-.486-2.489.423-3.463,1.28-8.03,7.142-15.739,13.67-24.744,19.532-1.451.96-3.225,1.945-4.834,1.293-1.348-.538-2.022-2-2.552-3.341-3.36-8.255-12.252-24.613-9.045-33.431m18.724,104.966a108.841,108.841,0,0,1-18.154-.6c3.485,0.474,13.8-12.837,16.1-15.1a23.64,23.64,0,0,1,5.26-4.237c5.975,0.974,10.955,8.039,14.825,11.891,0.747,0.742,1.483,1.484,2.23,2.227a21.264,21.264,0,0,0,3.714,3.136,184.063,184.063,0,0,1-23.975,2.688m42.5-6.182c-2.512.486-5.043,1-7.564,1.484A46.015,46.015,0,0,0,556.121,867c0.871-1.19,1.71-2.432,2.583-3.635a44.353,44.353,0,0,0,3.765-3.622c2.271-2.458,4.545-4.876,6.826-7.308,1.816-1.958,3.755-3.968,6.318-4.71a9.97,9.97,0,0,1,6.09.448c0.239,0.179.477,0.358,0.706,0.524,5.518,4.084,11.027,8.128,16.526,12.211,0.6,0.435,1.254.858,1.919,1.293q-20.572,4.165-41.1,8.281M659.778,761.343c-0.777,8.127-3.287,16.369-8.516,22.769-1.256,1.535-3.413,2.662-5.208,1.818a6.241,6.241,0,0,1-2.075-1.895c-1-1.254-9.368-12.825-6.567-14.015a170.482,170.482,0,0,0,22.605-11.378c-0.124.895-.154,1.8-0.239,2.7m32.586-15.193c-1.66,8.294-3.308,16.549-4.97,24.842-0.289,1.435-.736,4.57-1.566,7.565-1.192,4.365-3.216,8.46-6.794,6.783-2.242-1.036-5.135-5.861-6.671-7.845a31.873,31.873,0,0,1-7.056-18.968,4.751,4.751,0,0,1,.2-1.652,4.862,4.862,0,0,1,1.133-1.561c5.114-5.415,30-30.526,25.727-9.164M493.321,705.525c12.168,10.278,23.891,11.916,39.358,9.139,5.531-.986,11.266-4.467,12.231-9.971,0.842-4.851-2.4-9.663-6.618-12.21-4.211-2.572-9.254-3.367-14.13-4.083-1.4-3.533.913-7.616,4.182-9.574,3.266-1.92,7.22-2.2,11.017-2.444,5.073-.333,10.269-0.666,15.1.883a12.542,12.542,0,0,1,5.114,2.867,21.007,21.007,0,0,1,3.269,4.978c6.152,11.212,23.943,34.187,39.421,28.018,7.335-2.931,8.289-11.263,9.731-18.06,1.868-8.652,2.428-16.255,8.415-23.409a10.477,10.477,0,0,1,2.779-2.522,9.727,9.727,0,0,1,4.96-1.138c3.776-.052,8.028,1.241,9.678,4.632,1.213,2.522.674,5.5-.229,8.153-0.891,2.624-2.136,5.21-2.271,8.012-0.248,5.389,5.178,9.741,10.292,9.869,5.591,0.141,10.343-4.109,12.686-8.844,6.973-14.092,4.649-40.254-1.763-54.269-9.3-20.376-30.593-30.065-51.871-32.881-35.034-4.633-72.722,5.44-103.18,22.5-13.839,7.77-31.923,19.57-33.6,36.99-1.525,15.678,14.347,33.994,25.428,43.363M-57,136l175,67L204,86-83-35Z"/>
</svg>
