<svg width="88" height="112" viewBox="0 0 88 112" fill="none" xmlns="http://www.w3.org/2000/svg">
<g clip-path="url(#clip0)">
<path fill-rule="evenodd" clip-rule="evenodd" d="M87.764 87.247C87.606 87.527 87.386 87.751 87.104 87.918C86.82 88.086 86.51 88.169 86.173 88.169C85.838 88.169 85.529 88.086 85.246 87.919C84.962 87.752 84.743 87.529 84.584 87.25C84.427 86.97 84.348 86.672 84.348 86.353C84.348 86.029 84.428 85.727 84.59 85.445C84.751 85.162 84.975 84.94 85.258 84.777C85.542 84.614 85.847 84.532 86.173 84.532C86.496 84.532 86.8 84.613 87.083 84.774C87.366 84.936 87.591 85.158 87.754 85.44C87.917 85.722 87.999 86.026 87.999 86.353C87.999 86.67 87.92 86.968 87.764 87.247ZM87.526 85.575C87.386 85.335 87.195 85.146 86.954 85.005C86.711 84.866 86.452 84.796 86.173 84.796C85.894 84.796 85.635 84.866 85.394 85.005C85.153 85.143 84.962 85.332 84.822 85.574C84.682 85.816 84.612 86.075 84.612 86.353C84.612 86.629 84.682 86.889 84.821 87.129C84.961 87.37 85.15 87.56 85.393 87.698C85.635 87.839 85.894 87.908 86.173 87.908C86.452 87.908 86.711 87.839 86.952 87.699C87.194 87.561 87.385 87.372 87.524 87.13C87.664 86.89 87.733 86.629 87.733 86.353C87.733 86.075 87.665 85.816 87.526 85.575ZM86.178 86.58H85.869V87.436H85.491V85.271H86.129C86.402 85.271 86.6 85.322 86.726 85.429C86.851 85.535 86.914 85.695 86.914 85.912C86.914 86.046 86.879 86.162 86.81 86.258C86.739 86.357 86.645 86.428 86.525 86.476L87.104 87.436H86.676L86.178 86.58ZM86.53 85.921C86.53 85.803 86.496 85.719 86.43 85.666C86.364 85.614 86.258 85.586 86.113 85.586H85.869V86.272H86.118C86.249 86.272 86.35 86.24 86.423 86.176C86.494 86.112 86.53 86.026 86.53 85.921ZM85.527 92.128V92.918C85.49 95.169 84.286 97.236 82.571 98.598C83.723 101.379 84.877 104.158 86.034 106.937C84.508 107.286 82.976 107.617 81.442 107.925C80.393 105.387 79.346 102.849 78.3 100.308C77.926 100.378 77.74 100.412 77.365 100.479C77.367 103.221 77.367 105.963 77.368 108.705C75.832 108.984 74.29 109.243 72.747 109.48C72.745 102.537 72.744 95.595 72.741 88.652C73.056 88.603 73.214 88.578 73.529 88.528C75.063 88.283 75.83 88.153 77.361 87.877C78.149 87.735 78.542 87.663 79.327 87.513C82.313 86.78 85.554 88.834 85.527 92.128ZM80.933 92.554C80.933 91.71 80.215 91.172 79.329 91.342C78.543 91.49 78.15 91.564 77.362 91.706L77.364 96.651C78.15 96.509 78.545 96.436 79.331 96.286C80.217 96.116 80.935 95.289 80.934 94.447C80.934 93.689 80.934 93.311 80.933 92.554ZM75.276 24.317C74.17 21.322 73.064 18.328 71.95 15.338C71.557 15.269 71.359 15.236 70.965 15.17C70.97 17.961 70.976 20.752 70.98 23.544C69.361 23.271 67.735 23.023 66.107 22.802C66.096 15.736 66.087 8.668 66.076 1.601C66.408 1.648 66.574 1.67 66.906 1.718C68.523 1.948 69.331 2.072 70.943 2.342C71.771 2.48 72.186 2.552 73.014 2.7C76.445 3.335 79.505 6.44 79.55 10.014C79.55 10.335 79.551 10.496 79.551 10.818C79.575 12.831 78.35 14.61 76.449 15.292C77.675 18.634 78.896 21.977 80.113 25.322C78.507 24.961 76.892 24.626 75.276 24.317ZM74.714 8.463C74.712 7.606 73.955 6.765 73.021 6.598C72.194 6.449 71.779 6.378 70.95 6.24C70.953 7.918 70.955 9.595 70.958 11.272C71.788 11.411 72.202 11.483 73.031 11.632C73.965 11.799 74.719 11.249 74.717 10.391C74.716 9.62 74.716 9.233 74.714 8.463ZM68.529 33.239C68.9 33.239 69.294 33.281 69.807 33.375C74.501 34.239 75.668 42.449 75.716 42.798C75.985 44.776 75.931 46.932 75.556 49.207C75.502 49.538 75.442 49.877 75.38 50.219C75.14 51.546 74.893 52.919 74.994 54.119C75.041 54.678 75.46 55.197 75.891 55.538C76.196 55.78 76.556 55.946 76.854 56.193C77.153 56.442 77.395 56.814 77.334 57.197C77.25 57.727 74.1 59.714 73.673 59.432C73.872 59.563 74.087 59.668 74.312 59.741L76.733 60.521L74.606 61.912C72.796 63.097 71.188 64.644 69.972 66.434C69.407 67.266 69.19 68.044 68.322 68.669C67.591 69.196 66.735 69.535 65.927 69.922C64.659 70.53 63.47 71.303 62.401 72.214C60.934 73.464 59.829 75.704 60.07 77.675C60.277 79.375 60.587 80.87 59.236 82.232C58.45 83.024 57.338 83.52 56.264 83.777C55.252 84.019 54.275 83.994 53.259 84.164C50.761 84.584 48.312 84.971 45.779 84.584C44.599 84.404 43.41 84.134 42.374 83.543C41.839 83.237 41.354 82.85 40.832 82.523C40.313 82.2 39.762 81.938 39.21 81.677C38.564 81.371 37.919 81.064 37.274 80.759C35.703 80.013 34.15 79.855 32.429 79.759C27.499 79.484 22.317 79.622 17.555 78.154C13.719 76.969 10.152 75.041 6.816 72.837C6.635 72.716 6.256 72.466 6.038 72.004C5.629 71.138 6.091 70.34 6.243 70.076C6.994 68.782 8.017 67.588 9.283 66.528C9.365 66.459 9.475 66.362 9.604 66.248C9.728 66.139 9.852 66.03 9.974 65.925L7.974 65.582C7.642 65.524 7.187 65.447 6.745 65.19C6.076 64.796 5.679 64.111 5.71 63.398C5.768 62.035 7.12 61.242 8.108 60.664C8.353 60.519 8.631 60.357 8.747 60.262C9.183 59.906 9.37 59.535 9.117 58.595C7.862 53.944 7.316 49.697 7.446 45.611C7.53 42.976 7.884 40.728 8.529 38.739C9.138 36.863 10.257 35.626 12.049 34.844C13.007 34.428 13.99 34.225 15.054 34.225C16.74 34.225 18.334 34.742 19.875 35.244C20.288 35.378 20.714 35.518 21.131 35.643C21.219 35.669 21.306 35.696 21.39 35.723C23.393 31.538 29.884 28.933 40.708 27.976C41.931 27.867 43.214 27.813 44.519 27.813C49.277 27.813 60.03 28.611 63.525 35.518C63.694 35.396 63.87 35.276 64.047 35.157C65.097 34.46 66.216 33.873 66.34 33.808C67.095 33.414 67.77 33.239 68.529 33.239ZM64.723 48.849C65.467 49.424 66.275 49.901 67.05 50.43C67.417 50.68 67.776 50.944 68.11 51.238C68.318 51.421 68.651 51.933 68.975 51.772C69 51.761 69.023 51.746 69.046 51.727C69.336 51.492 69.288 50.976 69.278 50.652C69.264 50.086 69.278 49.517 69.307 48.951C69.364 47.855 69.477 46.762 69.534 45.665C69.593 44.496 71.057 39.395 69.606 38.959C69.372 38.89 69.127 39.032 68.982 39.236C68.957 39.271 68.935 39.308 68.916 39.347C68.792 39.606 68.783 39.901 68.738 40.184C68.491 41.725 67.177 42.832 66.021 43.884C64.574 45.2 62.847 47.398 64.723 48.849ZM39.952 77.741C40.258 77.973 40.53 78.25 40.757 78.559C41.205 79.165 41.618 79.805 42.261 80.224C43.08 80.758 43.94 81.29 44.828 81.702C46.112 82.298 47.53 82.616 48.951 82.625C50.007 82.633 51.055 82.473 52.097 82.315C53.719 82.066 55.341 81.819 56.962 81.57C57.522 81.485 58.117 81.383 58.533 81.009C59.128 80.474 58.906 79.66 58.228 79.322C57.451 78.935 56.45 79.122 55.654 79.283L54.349 79.547C54.481 79.301 54.642 79.065 54.79 78.831C54.868 78.708 54.954 78.589 55.033 78.467C55.104 78.356 55.142 78.229 55.234 78.129C55.322 78.033 55.453 77.965 55.582 77.986C55.683 78.003 55.767 78.067 55.861 78.105C55.931 78.158 55.999 78.22 56.062 78.278C56.239 78.441 56.487 78.603 56.705 78.501C56.803 78.454 56.871 78.362 56.934 78.274C57.011 78.169 57.09 78.059 57.122 77.932C57.226 77.531 56.809 77.04 56.573 76.752C56.347 76.476 55.859 76.246 55.79 75.873C55.784 75.844 55.783 75.81 55.798 75.784C55.812 75.763 55.836 75.749 55.861 75.739C56.035 75.671 56.23 75.747 56.418 75.737C56.698 75.724 56.939 75.514 57.07 75.266C57.18 75.059 57.273 75.005 57.47 75.158C57.789 75.403 58.088 75.91 58.553 75.83C58.913 75.766 59.071 75.35 59.156 74.995C59.252 74.592 60.37 69.567 59.627 69.516C59.577 69.513 59.529 69.538 59.485 69.567C59.222 69.738 59.064 70.054 58.904 70.364C58.865 70.437 58.827 70.509 58.787 70.581C58.168 71.672 57.274 71.838 56.32 72.233C55.288 72.66 54.219 72.948 53.137 73.093C50.25 73.479 47.503 71.838 44.694 72.79C42.576 73.509 41.299 75.157 39.723 76.628C39.61 76.734 39.49 76.85 39.459 77.001C39.394 77.308 39.702 77.55 39.952 77.741ZM46.986 70.185C47.725 70.811 48.435 70.911 49.374 70.742C49.709 70.681 50.057 70.47 50.115 70.136C50.167 69.84 49.97 69.547 49.714 69.392C49.459 69.236 49.153 69.189 48.857 69.144C48.772 68.93 48.912 68.681 49.11 68.563C49.309 68.445 49.549 68.428 49.779 68.411C50.086 68.393 50.402 68.372 50.695 68.467C50.81 68.503 50.92 68.557 51.006 68.642C51.091 68.727 51.146 68.837 51.204 68.944C51.577 69.628 52.656 71.024 53.595 70.649C54.04 70.471 54.098 69.963 54.186 69.55C54.299 69.024 54.333 68.562 54.697 68.126C54.745 68.066 54.799 68.01 54.865 67.971C54.954 67.919 55.061 67.904 55.165 67.902C55.395 67.899 55.653 67.979 55.752 68.184C55.826 68.337 55.794 68.52 55.74 68.681C55.684 68.841 55.61 68.999 55.602 69.168C55.586 69.496 55.915 69.762 56.225 69.769C56.565 69.776 56.853 69.518 56.995 69.23C57.418 68.373 57.277 66.782 56.888 65.928C56.324 64.69 55.032 64.099 53.741 63.929C51.617 63.647 49.329 64.258 47.482 65.298C46.643 65.77 45.545 66.489 45.443 67.548C45.351 68.502 46.314 69.614 46.986 70.185ZM46.324 71.285C46.354 71.283 46.384 71.282 46.415 71.281C46.396 71.268 46.379 71.253 46.36 71.24C46.349 71.254 46.336 71.269 46.324 71.285ZM63.104 37.841C60.923 29.403 47.75 28.573 40.815 29.186C35.789 29.631 24.213 31.086 22.244 36.847C22.185 37.019 22.136 37.193 22.093 37.369C21.759 37.154 21.332 36.971 20.781 36.806C18.009 35.977 15.372 34.721 12.538 35.957C11.021 36.618 10.177 37.606 9.689 39.114C9.006 41.216 8.733 43.447 8.664 45.649C8.528 49.936 9.183 54.161 10.294 58.279C10.612 59.459 10.483 60.415 9.518 61.203C8.856 61.743 6.969 62.467 6.927 63.45C6.915 63.736 7.115 63.996 7.361 64.141C7.609 64.286 7.898 64.336 8.181 64.385C9.922 64.683 11.664 64.981 13.405 65.279C12.554 65.135 10.67 66.954 10.067 67.458C8.971 68.375 8.016 69.446 7.298 70.685C7.156 70.93 7.019 71.229 7.141 71.486C7.211 71.635 7.352 71.733 7.489 71.823C12.958 75.435 18.619 78.02 25.259 78.217C26.117 78.057 25.832 77.936 26.639 77.734C26.28 76.484 27.267 76.903 23.624 76.638C21.247 76.465 18.767 75.925 16.605 75.037C14.676 74.247 13.075 73.21 11.759 71.596C11.378 71.128 11.126 70.521 11.217 69.926C11.301 69.376 11.656 68.911 12.02 68.491C13.533 66.743 17.269 64.126 12.679 63.562C12.098 63.491 11.545 63.47 11.224 63.425C9.89 63.259 10.322 62.422 10.99 61.709C11.737 60.913 12.762 60.305 12.667 59.069C12.605 58.257 12.234 57.503 11.87 56.772C10.404 53.83 10.386 50.179 10.7 46.944C10.944 44.415 10.838 40.335 13.402 38.926C15.903 37.551 19.312 39.997 21.49 41.268C21.683 41.381 21.882 41.497 22.09 41.577C22.574 44.752 23.827 47.809 25.723 50.407C26.706 51.755 27.906 53.094 28.055 54.752C28.22 56.592 27.037 58.286 26.809 60.119C26.598 61.811 27.226 63.521 28.194 64.926C29.227 66.425 30.774 68.235 32.468 68.882C33.819 69.4 35.529 69.475 36.949 69.72C38.345 69.959 39.756 70.095 41.164 70.246C42.373 70.375 43.86 70.855 45.046 70.681C45.204 70.658 45.392 70.592 45.413 70.435C45.423 70.357 45.384 70.279 45.343 70.211C44.813 69.371 44.071 69.124 43.893 67.995C43.514 65.596 45.778 64.319 47.804 63.585C51.12 62.384 48.192 59.945 47.148 58.098C45.819 55.75 44.904 53.126 44.464 50.466C43.891 47.005 43.876 43.404 42.563 40.101C41.875 38.371 40.797 36.847 39.457 35.554C38.777 34.898 38.039 34.3 37.281 33.736C36.794 33.374 35.168 32.693 35.731 31.932C35.923 31.672 36.247 31.549 36.554 31.446C40.687 30.054 45.168 29.87 49.488 30.475C49.788 30.517 50.107 30.572 50.332 30.774C51.051 31.421 49.251 34.158 48.947 34.886C48.392 36.218 48.112 37.664 48.132 39.108C48.17 41.854 49.266 44.408 50.134 46.969C50.995 49.507 51.007 52.007 51.773 54.531C52.062 55.648 52.206 56.766 51.998 57.905C51.856 58.679 51.706 59.458 51.682 60.246C51.655 61.122 51.569 61.953 52.456 62.209C53.549 62.524 54.676 62.541 55.727 63.028C56.69 63.476 57.469 64.23 57.854 65.227C58.143 65.975 57.853 67.835 58.931 67.976C60.094 68.126 62.114 65.582 62.704 64.705C63.847 63.008 64.21 60.955 64.303 58.948C64.461 55.463 62.791 52.307 62.613 48.876C62.522 47.086 62.86 45.318 63.113 43.553C63.228 42.752 63.207 41.975 63.619 41.306C64.08 40.554 65 39.875 65.616 39.236C66.739 38.072 69.005 35.834 70.455 37.399C72.583 39.694 73.439 43.3 73.338 46.366C73.238 49.373 71.974 52.514 70.904 55.287C70.346 56.735 70.019 58.261 69.695 59.777C69.175 62.208 68.656 64.638 68.136 67.068C69.544 64.592 71.551 62.457 73.939 60.897C72.915 60.567 72.045 59.791 71.602 58.814C73.252 58.385 74.833 57.697 76.268 56.782C74.945 56.955 73.892 55.546 73.78 54.221C73.638 52.531 74.081 50.671 74.354 49.012C74.682 47.015 74.781 44.971 74.509 42.961C74.155 40.36 72.634 35.131 69.585 34.57C68.56 34.382 67.873 34.381 66.904 34.885C66.362 35.168 62.897 37.04 63.104 37.841ZM21.698 48.944C20.91 47.481 19.92 45.716 18.54 44.71C17.132 43.682 15.902 43.161 15.057 41.447C14.953 41.239 14.843 41.007 14.63 40.912C14.568 40.886 14.51 40.873 14.452 40.869C14.046 40.856 13.719 41.399 13.603 41.847C12.989 44.203 12.833 46.675 13.146 49.089C13.241 49.825 13.38 50.559 13.628 51.258C13.909 52.047 15.392 55.341 16.465 55.209C17.08 55.133 18.216 52.594 18.761 52.008C19.207 51.53 22.124 49.735 21.698 48.944ZM45.206 68.617C45.185 68.58 45.167 68.541 45.148 68.503L45.181 68.569L45.206 68.617ZM57.727 61.668C56.892 61.388 56.491 60.498 55.715 60.165C55.506 60.074 55.27 60.089 55.045 60.063C54.818 60.037 54.572 59.952 54.473 59.749C54.373 59.547 54.458 59.295 54.611 59.13C54.765 58.965 54.974 58.865 55.172 58.757C56.351 58.115 57.294 57.005 58.226 56.059C59.021 55.251 59.842 54.313 60.965 54.156C61.083 54.14 61.209 54.134 61.311 54.194C61.499 54.308 61.497 54.592 61.394 54.786C61.29 54.982 61.116 55.13 61.009 55.323C60.645 55.981 61.497 57.076 61.609 57.771C61.78 58.823 61.429 59.822 60.74 60.623C59.982 61.499 58.884 62.055 57.727 61.668ZM59.436 56.743C59.369 56.773 59.307 56.812 59.247 56.858C59.138 56.941 59.039 57.047 58.941 57.146C58.398 57.695 57.759 58.151 57.061 58.485C56.287 58.855 56.296 59.431 56.704 60.122C56.862 60.388 57.075 60.649 57.36 60.694C57.688 60.744 57.998 60.485 58.199 60.183C58.4 59.882 58.532 59.528 58.752 59.245C58.972 58.962 59.33 58.758 59.638 58.894C60.027 59.066 59.423 60.139 59.21 60.275C58.899 60.473 58.027 60.305 58.073 60.958C58.516 61.066 59.046 61.151 59.472 60.923C59.833 60.729 60.143 60.407 60.346 60.019C60.686 59.37 61.091 56.003 59.436 56.743ZM41.241 59.094C41.609 59.253 41.999 59.396 42.399 59.435C42.729 59.469 43.177 59.36 43.445 59.613C43.57 59.731 43.597 59.965 43.456 60.063C43.388 60.111 43.3 60.119 43.218 60.123C42.306 60.176 41.248 60.261 40.401 59.837C40.267 59.788 40.135 59.731 40.003 59.676C39.081 59.282 38.206 59.077 37.203 58.948C37.016 58.924 36.826 58.901 36.639 58.927C36.061 59.005 35.62 59.541 35.524 60.115C35.429 60.688 35.624 61.275 35.924 61.773C36.337 62.457 37.008 63.009 37.758 63.289C38.165 63.443 39.667 63.776 39.717 62.975C39.727 62.818 39.616 62.676 39.481 62.596C39.346 62.516 39.189 62.485 39.038 62.444C38.739 62.363 38.452 62.24 38.188 62.077C37.874 61.885 37.565 61.567 37.628 61.206C37.725 60.651 38.362 60.763 38.607 61.149C38.723 61.332 38.751 61.555 38.84 61.751C38.99 62.078 39.316 62.314 39.672 62.377C40.31 62.489 40.968 61.962 41.55 61.753C41.672 61.709 41.786 61.655 41.896 61.593C41.703 64.507 37.627 64.852 35.816 63.553C34.661 62.726 33.982 61.072 34.768 59.753C35.032 59.311 35.544 59.046 35.493 58.468C35.391 57.3 34.206 58.271 33.537 58.024C33.28 57.929 33.065 57.69 33.057 57.416C33.048 57.155 33.226 56.915 33.45 56.78C33.674 56.644 33.939 56.597 34.2 56.567C35.893 56.367 37.679 56.808 39.075 57.787C39.765 58.269 40.464 58.759 41.241 59.094ZM44.417 74.105C45.047 73.827 45.745 73.717 46.421 73.888C46.601 73.936 46.886 73.947 46.957 74.143C47.022 74.322 46.847 74.635 46.769 74.791C46.391 75.555 45.623 76.414 44.917 76.896C44.828 76.957 44.708 77.016 44.617 76.958C44.547 76.915 44.528 76.824 44.515 76.742C44.393 75.976 44.291 75.206 44.208 74.434C44.203 74.374 44.197 74.312 44.221 74.258C44.255 74.181 44.339 74.14 44.417 74.105ZM44.858 79.571C45.109 79.313 45.325 79.024 45.5 78.711C45.822 78.138 46.097 78.472 46.297 78.877C46.49 79.27 46.842 79.76 46.706 80.222C46.565 80.698 45.69 80.264 45.355 80.209C45.168 80.18 44.616 80.108 44.688 79.813C44.701 79.765 44.726 79.723 44.756 79.683C44.787 79.644 44.823 79.606 44.858 79.571ZM52.18 74.985C53.233 74.898 54.417 74.635 55.55 74.183C55.538 74.183 55.509 74.238 55.472 74.318C55.38 74.521 55.238 74.888 55.19 74.946C54.895 75.315 54.542 76.325 54.018 75.794C53.755 75.521 53.407 75.416 53.125 75.183C53.084 75.149 53.04 75.114 52.987 75.103C52.891 75.088 52.806 75.162 52.74 75.233C52.446 75.548 52.245 75.93 51.962 76.247C51.896 76.321 51.822 76.396 51.724 76.413C51.648 76.426 51.57 76.401 51.499 76.371C51.167 76.233 50.898 75.98 50.637 75.731C50.546 75.731 50.148 75.225 50.07 75.15C50.052 75.132 50.033 75.115 50.01 75.104C49.937 75.072 49.858 75.129 49.8 75.183C49.312 75.617 48.844 76.013 48.298 76.37C48.21 76.428 48.102 76.489 48.005 76.449C47.924 76.417 47.883 76.328 47.85 76.245C47.646 75.743 47.107 74.749 47.302 74.211C48.896 74.668 50.502 75.124 52.18 74.985ZM48.632 79.383C48.995 79.443 49.297 79.873 49.531 80.108C49.576 80.154 49.622 80.198 49.667 80.244C49.737 80.314 49.809 80.382 49.892 80.436C49.41 80.516 48.926 80.58 48.437 80.598C48.073 80.611 47.698 80.61 47.336 80.561C47.547 80.588 48.173 79.78 48.313 79.642C48.408 79.546 48.515 79.448 48.632 79.383ZM50.952 79.789C51.031 79.722 51.108 79.647 51.181 79.567C51.319 79.42 51.457 79.272 51.594 79.122C51.705 79.005 51.822 78.881 51.979 78.838C52.101 78.802 52.226 78.822 52.348 78.864C52.362 78.874 52.377 78.885 52.391 78.896C52.725 79.144 53.06 79.391 53.393 79.639C53.429 79.666 53.469 79.691 53.509 79.717C52.678 79.885 51.847 80.053 51.016 80.221C50.863 80.252 50.711 80.282 50.558 80.313C50.648 80.218 50.725 80.105 50.795 80.009C50.849 79.937 50.9 79.863 50.952 79.789ZM57.098 73.417C57.091 73.471 57.09 73.528 57.084 73.581C57.037 74.075 56.885 74.578 56.567 74.967C56.491 75.06 56.361 75.128 56.252 75.078C56.199 75.054 56.161 75.007 56.126 74.962C56.065 74.887 55.557 74.182 55.727 74.11C56.199 73.912 56.66 73.683 57.098 73.417ZM57.499 73.215C57.81 72.884 59.32 71.357 59.061 72.657C58.96 73.161 58.86 73.664 58.76 74.169C58.741 74.257 58.715 74.447 58.665 74.628C58.592 74.894 58.469 75.144 58.252 75.041C58.116 74.978 57.94 74.686 57.848 74.564C57.586 74.224 57.43 73.842 57.419 73.41C57.418 73.376 57.42 73.342 57.431 73.311C57.446 73.274 57.472 73.243 57.499 73.215ZM58.636 17.748C56.917 17.588 56.057 17.518 54.336 17.401C54.079 19.061 53.95 19.89 53.692 21.55C51.964 21.439 51.098 21.393 49.367 21.325C50.454 14.314 51.541 7.299 52.627 0.286002C54.028 0.368002 54.729 0.415002 56.129 0.527002C56.454 0.552002 56.616 0.565002 56.943 0.592002C58.463 0.719002 59.225 0.791002 60.744 0.952002C61.786 8.138 62.828 15.324 63.869 22.51C62.335 22.317 60.795 22.146 59.254 21.999C59.007 20.299 58.883 19.448 58.636 17.748ZM56.528 3.264C55.997 6.692 55.465 10.119 54.934 13.546C56.185 13.637 56.811 13.687 58.061 13.8C57.551 10.288 57.039 6.776 56.528 3.264ZM41.339 21.197C39.702 21.207 38.062 21.241 36.425 21.3C36.425 19.741 36.426 18.963 36.427 17.404C36.429 11.637 36.431 5.869 36.433 0.101002C38.068 0.0410017 39.706 0.00700165 41.341 -0.00299835C41.341 5.766 41.34 11.533 41.339 17.3C43.845 17.16 47.912 17.364 47.912 17.364L47.364 21.261C47.364 21.261 43.348 21.183 41.339 21.197ZM26.854 22.278C23.608 22.592 20.249 20.51 20.265 17C20.27 13.698 20.275 10.395 20.279 7.091C20.319 3.558 23.457 0.675002 26.875 0.348002C30.198 0.0320016 33.476 2.392 33.477 5.881C33.476 9.184 33.474 12.487 33.473 15.789C33.445 19.333 30.205 21.965 26.854 22.278ZM26.871 4.379C25.93 4.466 25.166 5.24 25.165 6.097C25.161 9.684 25.157 13.271 25.153 16.859C25.152 17.717 25.916 18.334 26.858 18.247C27.8 18.161 28.566 17.405 28.567 16.547C28.57 12.959 28.573 9.371 28.576 5.784C28.577 4.926 27.814 4.293 26.871 4.379ZM11.177 18.873C10.68 18.965 10.431 19.011 9.935 19.107C9.931 20.844 9.928 22.581 9.924 24.317C8.307 24.626 6.692 24.962 5.086 25.322L5.098 20.113C5.102 18.554 5.104 17.774 5.108 16.216C5.114 13.482 5.12 10.749 5.127 8.015C5.131 6.456 5.132 5.677 5.136 4.117C6.74 3.757 8.353 3.422 9.967 3.114C10.463 3.018 10.712 2.971 11.208 2.878C14.439 2.255 17.771 4.325 17.751 7.806C17.749 9.395 17.747 10.188 17.745 11.776C17.699 15.35 14.537 18.235 11.177 18.873ZM11.201 6.776C10.704 6.867 10.455 6.915 9.959 7.011C9.953 9.744 9.948 12.477 9.942 15.21C10.439 15.115 10.687 15.068 11.184 14.976C12.118 14.802 12.877 13.975 12.878 13.117C12.882 11.421 12.885 9.722 12.888 8.025C12.89 7.167 12.133 6.602 11.201 6.776ZM12.256 94.005C12.255 94.3 12.255 94.447 12.255 94.744C12.255 96.096 11.702 97.248 10.788 98.055C11.92 99.144 12.818 101.098 12.778 102.705V103.495C12.792 106.767 9.603 109.062 6.551 108.313C5.765 108.162 5.372 108.085 4.587 107.926C3.061 107.617 2.299 107.454 0.777002 107.113C0.464002 107.043 0.308002 107.008 -0.0039978 106.936C-0.000997803 99.994 0.0010022 93.051 0.0050022 86.109C0.109002 86.133 0.161002 86.144 0.265002 86.169C1.994 86.561 2.86 86.746 4.595 87.098C5.171 87.215 5.459 87.272 6.036 87.384C9.096 87.992 12.21 90.6 12.256 94.005ZM4.588 104.097C5.374 104.256 5.766 104.333 6.553 104.484C7.439 104.653 8.158 104.102 8.159 103.259C8.159 102.503 8.159 102.124 8.16 101.367C8.16 100.524 7.441 99.71 6.554 99.539C5.768 99.389 5.375 99.311 4.591 99.152C4.59 100.8 4.589 102.449 4.588 104.097ZM4.594 90.673C4.593 92.521 4.592 93.444 4.592 95.291C5.168 95.409 5.456 95.466 6.032 95.578C6.919 95.749 7.639 95.246 7.639 94.458C7.639 93.751 7.639 93.397 7.639 92.69C7.639 91.902 6.92 91.132 6.034 90.959C5.457 90.847 5.17 90.79 4.594 90.673ZM20.405 89.609C20.714 89.645 20.868 89.663 21.176 89.699C22.62 89.861 23.342 89.937 24.788 90.073C25.769 97.101 26.752 104.224 27.736 111.251C25.98 111.112 25.101 110.939 23.346 110.76C23.113 109.089 22.997 108.253 22.765 106.581C21.133 106.411 20.318 106.316 18.69 106.109C18.445 107.725 18.323 108.535 18.078 110.15C16.444 109.938 15.627 109.823 13.996 109.575C15.028 102.78 16.058 95.985 17.09 89.19C18.415 89.368 19.078 89.453 20.405 89.609ZM22.224 102.696C21.742 99.234 21.261 95.774 20.781 92.313C20.274 95.66 19.767 99.005 19.26 102.353C20.445 102.498 21.038 102.568 22.224 102.696ZM34.077 90.711C34.242 90.719 34.324 90.723 34.489 90.729V90.733C39.346 91.033 42.486 93.45 42.416 98.747V103.916C42.486 109.183 39.406 111.687 34.488 111.554V111.557C34.322 111.55 34.24 111.546 34.076 111.539C32.374 111.46 31.525 111.411 29.825 111.294C29.826 104.351 29.827 97.409 29.828 90.466C31.527 90.583 32.377 90.631 34.077 90.711ZM37.961 104.627C37.962 102.347 37.962 100.067 37.962 97.788C38.001 95.642 36.443 94.699 34.488 94.567C34.488 98.952 34.488 103.336 34.488 107.721C36.5 107.763 38.017 106.81 37.961 104.627ZM51.016 90.453C54.172 90.315 57.3 92.571 57.301 95.995V97.667C55.75 97.784 54.194 97.881 52.641 97.957V95.866C52.641 95.023 51.913 94.377 51.016 94.414C50.119 94.452 49.391 95.158 49.391 96C49.391 99.492 49.392 102.983 49.392 106.475C49.392 107.318 49.979 108.084 51.282 108.029C52.585 107.972 53.172 107.155 53.171 106.312V104.863C52.309 104.908 52.302 104.929 51.439 104.964V101.136C53.536 101.048 55.208 100.928 57.302 100.772V104.372V104.599C57.302 105.052 57.302 105.278 57.303 105.73C57.278 109.164 54.27 111.857 51.017 112C47.803 112.137 44.736 109.666 44.725 106.251V96.517C44.74 93.075 47.817 90.587 51.016 90.453ZM70.378 88.997C70.378 90.527 70.379 91.293 70.379 92.825C68.38 93.112 66.377 93.367 64.37 93.59C64.37 95.349 64.37 96.228 64.37 97.987C66.134 97.783 67.891 97.563 69.65 97.326C69.651 98.857 69.651 99.622 69.652 101.155C67.892 101.391 66.135 101.612 64.371 101.816C64.372 103.464 64.372 105.112 64.373 106.761C66.38 106.537 68.384 106.282 70.383 105.995C70.383 107.527 70.383 108.293 70.384 109.824C68.384 110.111 66.381 110.366 64.374 110.589C62.825 110.764 61.275 110.918 59.722 111.051V107.222C59.722 102.831 59.721 98.441 59.72 94.051C59.719 92.519 59.719 91.753 59.719 90.222C61.271 90.09 62.822 89.937 64.369 89.762C66.376 89.538 68.38 89.283 70.378 88.997Z" fill="#FDBD40"/>
</g>
<defs>
<clipPath id="clip0">
<rect width="88" height="112" fill="white"/>
</clipPath>
</defs>
</svg>
