<svg width="89" height="110" viewBox="0 0 89 110" fill="none" xmlns="http://www.w3.org/2000/svg">
<g clip-path="url(#clip0)">
<path fill-rule="evenodd" clip-rule="evenodd" d="M88.686 85.888C88.476 86.258 88.185 86.554 87.809 86.777C87.431 86.999 87.021 87.11 86.573 87.11C86.128 87.11 85.717 86.999 85.341 86.779C84.965 86.556 84.673 86.26 84.463 85.891C84.253 85.521 84.149 85.124 84.149 84.701C84.149 84.273 84.256 83.872 84.471 83.498C84.685 83.124 84.982 82.829 85.358 82.613C85.734 82.398 86.139 82.289 86.573 82.289C87.003 82.289 87.406 82.397 87.782 82.609C88.159 82.823 88.455 83.117 88.673 83.491C88.89 83.866 88.998 84.269 88.998 84.701C88.998 85.123 88.893 85.519 88.686 85.888ZM88.369 83.672C88.185 83.352 87.931 83.101 87.61 82.916C87.289 82.732 86.943 82.639 86.573 82.639C86.204 82.639 85.858 82.732 85.538 82.914C85.218 83.098 84.965 83.349 84.779 83.67C84.593 83.989 84.5 84.334 84.5 84.701C84.5 85.069 84.593 85.412 84.777 85.73C84.963 86.05 85.215 86.302 85.536 86.486C85.858 86.671 86.204 86.763 86.573 86.763C86.943 86.763 87.289 86.672 87.608 86.488C87.928 86.304 88.182 86.053 88.368 85.732C88.554 85.413 88.646 85.069 88.646 84.701C88.646 84.334 88.555 83.99 88.369 83.672ZM86.579 85.002H86.17V86.138H85.667V83.267H86.515C86.876 83.267 87.14 83.337 87.308 83.478C87.474 83.617 87.557 83.831 87.557 84.117C87.557 84.295 87.511 84.448 87.418 84.578C87.325 84.707 87.2 84.803 87.041 84.866L87.809 86.138H87.241L86.579 85.002ZM87.048 84.131C87.048 83.974 87.003 83.861 86.915 83.792C86.826 83.722 86.685 83.687 86.492 83.687H86.17V84.594H86.499C86.673 84.594 86.809 84.552 86.904 84.467C87 84.381 87.048 84.269 87.048 84.131ZM84.197 91.264C84.16 93.476 82.975 95.504 81.287 96.843C82.422 99.573 83.558 102.304 84.696 105.032C83.194 105.377 81.687 105.701 80.176 106.003C79.143 103.511 78.112 101.016 77.083 98.523C76.715 98.59 76.531 98.623 76.163 98.69C76.164 101.383 76.165 104.077 76.166 106.769C74.653 107.043 73.136 107.298 71.617 107.53C71.615 100.711 71.613 93.893 71.611 87.074C71.922 87.026 72.077 87.001 72.386 86.952C73.897 86.711 74.652 86.584 76.158 86.313C76.934 86.174 77.321 86.103 78.095 85.954C81.035 85.235 84.224 87.251 84.197 90.488V91.264ZM79.676 90.905C79.676 90.078 78.968 89.547 78.097 89.715C77.322 89.862 76.935 89.933 76.16 90.073C76.16 91.692 76.161 93.311 76.162 94.929C76.937 94.79 77.324 94.719 78.097 94.57C78.97 94.406 79.677 93.593 79.676 92.765C79.676 92.021 79.676 91.649 79.676 90.905ZM74.106 23.883C73.018 20.943 71.928 18.002 70.833 15.065C70.445 14.998 70.251 14.965 69.863 14.9C69.868 17.642 69.872 20.383 69.877 23.125C68.284 22.857 66.683 22.614 65.08 22.397C65.07 15.456 65.06 8.515 65.049 1.572C65.377 1.618 65.541 1.641 65.867 1.688C67.459 1.913 68.254 2.036 69.841 2.3C70.657 2.436 71.064 2.507 71.88 2.653C75.257 3.276 78.269 6.326 78.314 9.835C78.314 10.152 78.315 10.31 78.316 10.625C78.338 12.603 77.133 14.351 75.261 15.021C76.468 18.302 77.671 21.586 78.868 24.871C77.287 24.518 75.697 24.187 74.106 23.883ZM73.553 8.312C73.551 7.469 72.806 6.646 71.887 6.48C71.072 6.334 70.663 6.264 69.847 6.129C69.85 7.776 69.853 9.424 69.856 11.072C70.673 11.209 71.081 11.279 71.897 11.425C72.815 11.589 73.558 11.048 73.556 10.205C73.555 9.448 73.555 9.07 73.553 8.312ZM57.726 17.433C56.034 17.274 55.187 17.207 53.493 17.09C53.24 18.721 53.113 19.536 52.86 21.167C51.157 21.058 50.306 21.013 48.602 20.947C49.672 14.059 50.741 7.17 51.811 0.282001C53.19 0.361001 53.88 0.410001 55.258 0.518001C55.578 0.543001 55.739 0.555001 56.059 0.582001C57.557 0.707001 58.305 0.778001 59.801 0.936001C60.828 7.993 61.853 15.051 62.878 22.109C61.367 21.92 59.851 21.752 58.335 21.607C58.091 19.937 57.97 19.102 57.726 17.433ZM55.651 3.208C55.128 6.574 54.605 9.939 54.082 13.305C55.314 13.394 55.929 13.443 57.16 13.554C56.657 10.105 56.154 6.657 55.651 3.208ZM40.7 20.821C39.087 20.828 37.473 20.863 35.862 20.922C35.862 19.39 35.863 18.625 35.863 17.094C35.865 11.429 35.867 5.764 35.869 0.0990011C37.478 0.0410011 39.091 0.0080011 40.701 -0.0019989C40.7 5.664 40.7 11.328 40.7 16.992C43.165 16.853 47.17 17.056 47.17 17.056L46.63 20.883C46.63 20.883 42.676 20.807 40.7 20.821ZM26.44 21.883C23.245 22.191 19.939 20.145 19.954 16.697C19.958 13.454 19.963 10.209 19.968 6.966C20.007 3.494 23.096 0.664001 26.461 0.341001C29.732 0.0320011 32.959 2.351 32.96 5.777L32.955 15.509C32.928 18.988 29.739 21.574 26.44 21.883ZM26.457 4.301C25.53 4.386 24.778 5.145 24.777 5.989C24.774 9.512 24.769 13.035 24.765 16.559C24.765 17.402 25.516 18.007 26.444 17.923C27.372 17.838 28.125 17.093 28.126 16.252C28.129 12.728 28.132 9.205 28.135 5.682C28.136 4.838 27.384 4.217 26.457 4.301ZM11.007 18.537C10.518 18.628 10.272 18.674 9.784 18.769C9.781 20.473 9.777 22.178 9.774 23.883C8.182 24.188 6.593 24.518 5.011 24.871C5.016 23.166 5.019 21.461 5.024 19.756C5.027 18.223 5.028 17.459 5.032 15.927C5.039 13.241 5.045 10.557 5.052 7.873C5.055 6.341 5.057 5.575 5.061 4.044C6.639 3.691 8.227 3.361 9.816 3.059C10.305 2.964 10.549 2.919 11.038 2.828C14.218 2.215 17.498 4.248 17.479 7.668C17.476 9.228 17.475 10.007 17.472 11.566C17.428 15.077 14.314 17.91 11.007 18.537ZM11.031 6.656C10.541 6.746 10.297 6.792 9.808 6.886C9.803 9.572 9.797 12.255 9.792 14.94C10.281 14.846 10.525 14.799 11.015 14.71C11.933 14.54 12.68 13.726 12.682 12.885C12.686 11.218 12.689 9.55 12.692 7.882C12.693 7.038 11.949 6.486 11.031 6.656ZM12.069 92.332C12.069 92.622 12.069 92.766 12.069 93.056C12.069 94.386 11.525 95.516 10.625 96.309C11.739 97.378 12.623 99.298 12.583 100.876V101.652C12.597 104.865 9.458 107.121 6.453 106.384C5.679 106.236 5.293 106.16 4.52 106.003C3.017 105.7 2.267 105.541 0.77 105.206C0.461 105.138 0.307 105.102 0 105.032C0.003 98.213 0.007 91.395 0.01 84.576C0.112 84.599 0.163 84.611 0.266 84.635C1.967 85.019 2.82 85.202 4.528 85.547C5.095 85.661 5.379 85.718 5.946 85.829C8.959 86.426 12.024 88.988 12.069 92.332ZM4.521 102.243C5.294 102.399 5.681 102.476 6.455 102.623C7.328 102.791 8.036 102.247 8.036 101.42C8.037 100.676 8.037 100.305 8.037 99.562C8.037 98.734 7.329 97.933 6.457 97.767C5.682 97.619 5.296 97.543 4.523 97.387C4.523 99.006 4.522 100.625 4.521 102.243ZM4.527 89.058C4.526 90.873 4.525 91.781 4.525 93.596C5.092 93.71 5.376 93.765 5.943 93.876C6.815 94.045 7.523 93.549 7.523 92.777C7.524 92.081 7.524 91.734 7.524 91.039C7.524 90.266 6.817 89.509 5.945 89.34C5.377 89.23 5.094 89.174 4.527 89.058ZM20.091 88.014C20.395 88.049 20.547 88.067 20.85 88.101C22.272 88.262 22.982 88.336 24.406 88.469C25.372 95.373 26.339 102.367 27.308 109.27C25.578 109.134 24.715 108.964 22.987 108.789C22.758 107.147 22.643 106.327 22.414 104.683C20.808 104.516 20.006 104.423 18.403 104.22C18.162 105.807 18.041 106.601 17.8 108.188C16.192 107.98 15.388 107.868 13.783 107.624C14.798 100.95 15.813 94.277 16.827 87.602C18.132 87.779 18.785 87.861 20.091 88.014ZM21.882 100.867C21.407 97.468 20.934 94.067 20.461 90.669C19.962 93.956 19.463 97.242 18.964 100.53C20.131 100.674 20.714 100.741 21.882 100.867ZM15.72 54.446C14.642 54.577 13.152 51.276 12.871 50.485C12.621 49.785 12.481 49.048 12.385 48.31C12.071 45.89 12.228 43.411 12.845 41.051C12.962 40.602 13.29 40.056 13.698 40.071C13.756 40.074 13.815 40.087 13.876 40.114C14.091 40.208 14.202 40.44 14.305 40.65C15.155 42.367 16.391 42.891 17.805 43.921C19.191 44.93 20.188 46.698 20.979 48.166C21.407 48.96 18.476 50.757 18.028 51.238C17.48 51.825 16.338 54.371 15.72 54.446ZM44.598 67.888L44.574 67.84L44.541 67.774C44.559 67.812 44.579 67.85 44.598 67.888ZM26.113 59.369C26.342 57.529 27.531 55.834 27.365 53.988C27.216 52.325 26.011 50.982 25.022 49.632C23.118 47.028 21.859 43.963 21.372 40.78C21.162 40.699 20.964 40.583 20.769 40.469C18.582 39.197 15.156 36.744 12.643 38.123C10.066 39.536 10.174 43.625 9.927 46.159C9.612 49.404 9.631 53.063 11.104 56.013C11.47 56.746 11.842 57.501 11.905 58.316C12 59.555 10.97 60.164 10.219 60.964C9.549 61.677 9.114 62.516 10.454 62.684C10.777 62.729 11.332 62.749 11.915 62.821C16.529 63.387 12.775 66.01 11.255 67.761C10.889 68.184 10.532 68.65 10.448 69.199C10.357 69.796 10.608 70.405 10.992 70.874C12.315 72.492 13.924 73.533 15.86 74.325C18.033 75.214 20.526 75.755 22.913 75.929C26.574 76.195 25.583 75.774 25.942 77.027C25.132 77.231 25.418 77.352 24.556 77.512C17.885 77.314 12.197 74.723 6.702 71.103C6.565 71.012 6.421 70.913 6.351 70.764C6.229 70.506 6.367 70.208 6.51 69.961C7.232 68.719 8.19 67.645 9.291 66.727C9.896 66.22 11.791 64.397 12.646 64.541C10.896 64.242 9.146 63.943 7.395 63.645C7.112 63.596 6.821 63.545 6.573 63.4C6.325 63.255 6.125 62.994 6.137 62.708C6.179 61.722 8.076 60.996 8.741 60.455C9.71 59.665 9.84 58.707 9.52 57.524C8.403 53.394 7.745 49.159 7.882 44.862C7.952 42.655 8.226 40.418 8.912 38.31C9.403 36.797 10.25 35.809 11.774 35.146C14.623 33.908 17.272 35.166 20.057 35.996C20.61 36.162 21.04 36.346 21.375 36.561C21.419 36.384 21.468 36.21 21.527 36.037C23.506 30.264 35.137 28.803 40.188 28.358C47.155 27.742 60.392 28.575 62.582 37.033C62.374 36.23 65.856 34.354 66.401 34.072C67.374 33.565 68.064 33.566 69.095 33.755C72.159 34.318 73.686 39.559 74.041 42.168C74.316 44.183 74.215 46.232 73.886 48.233C73.612 49.896 73.166 51.762 73.309 53.456C73.421 54.784 74.48 56.197 75.81 56.023C74.367 56.942 72.779 57.631 71.122 58.059C71.566 59.039 72.44 59.818 73.468 60.149C71.07 61.713 69.054 63.853 67.639 66.334C68.161 63.898 68.683 61.462 69.205 59.024C69.531 57.504 69.859 55.976 70.42 54.526C71.495 51.744 72.765 48.595 72.865 45.58C72.967 42.506 72.106 38.893 69.969 36.591C68.511 35.022 66.235 37.266 65.107 38.433C64.488 39.074 63.564 39.753 63.099 40.508C62.686 41.178 62.706 41.958 62.591 42.761C62.337 44.53 61.997 46.303 62.09 48.095C62.267 51.537 63.946 54.7 63.786 58.195C63.694 60.207 63.33 62.265 62.181 63.967C61.588 64.845 59.558 67.395 58.389 67.245C57.306 67.104 57.597 65.24 57.307 64.49C56.921 63.49 56.138 62.735 55.17 62.285C54.115 61.796 52.982 61.779 51.883 61.464C50.993 61.207 51.079 60.374 51.105 59.496C51.13 58.706 51.281 57.925 51.423 57.149C51.632 56.007 51.488 54.885 51.197 53.767C50.427 51.235 50.416 48.73 49.55 46.184C48.677 43.617 47.577 41.058 47.539 38.302C47.519 36.857 47.8 35.408 48.358 34.072C48.663 33.342 50.472 30.597 49.749 29.949C49.523 29.746 49.204 29.692 48.901 29.65C44.56 29.044 40.059 29.227 35.905 30.623C35.597 30.726 35.272 30.849 35.079 31.111C34.512 31.871 36.147 32.555 36.636 32.919C37.398 33.485 38.139 34.083 38.823 34.741C40.168 36.037 41.252 37.564 41.943 39.3C43.262 42.611 43.278 46.222 43.853 49.691C44.295 52.358 45.215 54.988 46.55 57.344C47.599 59.195 50.542 61.639 47.21 62.844C45.173 63.579 42.899 64.86 43.279 67.264C43.458 68.398 44.204 68.644 44.736 69.487C44.779 69.554 44.817 69.632 44.807 69.711C44.786 69.868 44.596 69.934 44.438 69.957C43.246 70.132 41.752 69.65 40.538 69.521C39.123 69.371 37.705 69.234 36.302 68.993C34.875 68.747 33.158 68.673 31.8 68.156C30.097 67.504 28.543 65.689 27.506 64.188C26.533 62.779 25.902 61.065 26.113 59.369ZM53.909 58.998C54.009 59.202 54.257 59.287 54.484 59.312C54.711 59.337 54.948 59.325 55.158 59.414C55.939 59.747 56.342 60.641 57.179 60.921C58.343 61.31 59.447 60.754 60.207 59.874C60.9 59.071 61.251 58.07 61.08 57.015C60.968 56.317 60.112 55.221 60.478 54.561C60.585 54.367 60.76 54.218 60.864 54.022C60.968 53.828 60.97 53.544 60.78 53.428C60.679 53.368 60.551 53.374 60.433 53.389C59.303 53.547 58.48 54.487 57.68 55.298C56.744 56.247 55.796 57.36 54.612 58.003C54.413 58.111 54.204 58.211 54.049 58.377C53.896 58.543 53.81 58.795 53.909 58.998ZM32.874 57.267C33.546 57.517 34.737 56.542 34.84 57.714C34.891 58.292 34.377 58.558 34.11 59.003C33.321 60.323 34.004 61.982 35.164 62.812C36.984 64.113 41.079 63.766 41.272 60.847C41.162 60.909 41.047 60.963 40.925 61.007C40.34 61.216 39.68 61.745 39.038 61.631C38.681 61.57 38.353 61.333 38.202 61.005C38.113 60.808 38.085 60.585 37.968 60.401C37.721 60.014 37.082 59.903 36.985 60.458C36.922 60.82 37.232 61.138 37.547 61.332C37.812 61.494 38.101 61.618 38.402 61.699C38.553 61.741 38.711 61.772 38.847 61.852C38.982 61.931 39.093 62.074 39.084 62.23C39.033 63.034 37.525 62.7 37.114 62.547C36.361 62.266 35.688 61.713 35.273 61.028C34.971 60.529 34.774 59.939 34.871 59.365C34.967 58.789 35.411 58.252 35.991 58.173C36.179 58.148 36.37 58.17 36.558 58.195C37.566 58.324 38.445 58.529 39.371 58.923C39.504 58.98 39.636 59.035 39.771 59.087C40.621 59.51 41.685 59.426 42.6 59.373C42.684 59.367 42.772 59.361 42.841 59.312C42.982 59.213 42.956 58.979 42.83 58.862C42.561 58.608 42.11 58.717 41.778 58.684C41.376 58.643 40.985 58.5 40.615 58.341C39.834 58.004 39.132 57.515 38.439 57.031C37.035 56.049 35.241 55.608 33.539 55.806C33.278 55.838 33.011 55.884 32.786 56.02C32.561 56.156 32.384 56.398 32.392 56.66C32.401 56.933 32.616 57.173 32.874 57.267ZM56.511 57.731C57.212 57.395 57.853 56.939 58.4 56.388C58.498 56.288 58.596 56.184 58.707 56.099C58.767 56.053 58.828 56.013 58.897 55.984C60.561 55.242 60.153 58.618 59.81 59.268C59.606 59.657 59.296 59.98 58.932 60.173C58.506 60.402 57.972 60.317 57.528 60.21C57.482 59.555 58.357 59.723 58.67 59.525C58.883 59.388 59.49 58.314 59.099 58.141C58.79 58.003 58.431 58.209 58.21 58.493C57.988 58.775 57.855 59.131 57.654 59.433C57.453 59.735 57.14 59.995 56.81 59.945C56.525 59.9 56.31 59.639 56.152 59.371C55.743 58.679 55.734 58.1 56.511 57.731ZM33.55 89.096C33.712 89.102 33.793 89.106 33.956 89.113V89.118C38.736 89.413 41.827 91.789 41.759 96.987V102.067C41.829 107.238 38.796 109.699 33.954 109.568V109.572C33.792 109.565 33.711 109.562 33.548 109.553C31.874 109.476 31.037 109.427 29.365 109.313C29.366 102.493 29.367 95.675 29.368 88.855C31.04 88.97 31.877 89.018 33.55 89.096ZM37.374 102.764V96.046C37.413 93.938 35.879 93.014 33.956 92.882C33.955 97.189 33.955 101.495 33.955 105.802C35.935 105.845 37.429 104.909 37.374 102.764ZM50.225 88.844C53.331 88.706 56.41 90.921 56.412 94.286V95.928C54.884 96.042 53.354 96.139 51.825 96.213C51.824 95.391 51.824 94.981 51.824 94.16C51.824 93.332 51.108 92.696 50.225 92.734C49.342 92.769 48.625 93.464 48.625 94.291C48.625 97.719 48.626 101.149 48.626 104.578C48.626 105.406 49.204 106.16 50.487 106.104C51.77 106.049 52.346 105.247 52.346 104.42V102.996C51.499 103.04 51.075 103.06 50.226 103.094C50.225 101.592 50.225 100.838 50.225 99.334C52.29 99.25 54.352 99.13 56.412 98.978C56.412 100.391 56.412 101.099 56.413 102.514V102.739V103.847C56.389 107.22 53.428 109.865 50.227 110.006C47.062 110.14 44.043 107.713 44.033 104.359C44.033 101.173 44.033 97.985 44.032 94.799C44.047 91.418 47.077 88.975 50.225 88.844ZM49.129 68.665C49.386 68.821 49.583 69.114 49.532 69.41C49.473 69.746 49.124 69.958 48.786 70.018C47.844 70.188 47.129 70.088 46.387 69.461C45.712 68.889 44.744 67.772 44.837 66.816C44.94 65.754 46.042 65.034 46.886 64.56C48.742 63.519 51.039 62.905 53.175 63.188C54.472 63.359 55.77 63.95 56.337 65.193C56.728 66.048 56.869 67.643 56.444 68.503C56.301 68.792 56.012 69.051 55.671 69.042C55.359 69.035 55.028 68.769 55.044 68.44C55.052 68.27 55.128 68.112 55.182 67.952C55.237 67.79 55.27 67.608 55.196 67.455C55.095 67.248 54.836 67.169 54.606 67.172C54.502 67.173 54.394 67.188 54.304 67.241C54.237 67.279 54.184 67.337 54.134 67.395C53.769 67.832 53.735 68.295 53.621 68.823C53.533 69.238 53.475 69.746 53.028 69.924C52.085 70.301 51 68.9 50.625 68.216C50.567 68.11 50.512 67.998 50.426 67.912C50.341 67.828 50.229 67.773 50.114 67.737C49.82 67.643 49.503 67.663 49.194 67.683C48.962 67.698 48.721 67.715 48.522 67.832C48.323 67.952 48.182 68.201 48.267 68.416C48.564 68.46 48.872 68.508 49.129 68.665ZM51.523 81.62C50.475 81.779 49.422 81.939 48.362 81.932C46.935 81.922 45.509 81.604 44.219 81.006C43.327 80.594 42.463 80.06 41.641 79.525C40.994 79.104 40.578 78.462 40.129 77.854C39.9 77.545 39.627 77.269 39.32 77.035C39.068 76.843 38.76 76.601 38.824 76.294C38.856 76.142 38.976 76.025 39.089 75.919C40.672 74.443 41.957 72.792 44.085 72.072C46.907 71.117 49.667 72.762 52.568 72.376C53.655 72.231 54.73 71.942 55.765 71.515C56.725 71.117 57.624 70.95 58.244 69.857C58.285 69.786 58.323 69.712 58.362 69.639C58.523 69.329 58.682 69.012 58.946 68.839C58.99 68.811 59.038 68.786 59.088 68.789C59.835 68.839 58.711 73.881 58.615 74.283C58.531 74.638 58.371 75.056 58.01 75.119C57.542 75.2 57.242 74.691 56.921 74.444C56.723 74.292 56.63 74.345 56.52 74.553C56.388 74.803 56.146 75.012 55.864 75.025C55.676 75.035 55.479 74.961 55.304 75.028C55.28 75.038 55.255 75.051 55.241 75.074C55.226 75.099 55.228 75.133 55.234 75.163C55.303 75.537 55.793 75.767 56.02 76.044C56.257 76.332 56.675 76.824 56.572 77.227C56.539 77.353 56.46 77.463 56.383 77.569C56.32 77.658 56.252 77.75 56.153 77.797C55.934 77.899 55.685 77.738 55.507 77.573C55.444 77.515 55.376 77.454 55.304 77.399C55.211 77.361 55.125 77.298 55.025 77.28C54.895 77.26 54.764 77.327 54.675 77.423C54.582 77.524 54.544 77.651 54.473 77.763C54.394 77.885 54.307 78.006 54.229 78.128C54.08 78.363 53.919 78.598 53.786 78.845C54.223 78.758 54.66 78.67 55.097 78.582C55.896 78.421 56.902 78.233 57.683 78.621C58.364 78.959 58.586 79.775 57.989 80.311C57.571 80.686 56.975 80.789 56.412 80.874C54.782 81.123 53.153 81.371 51.523 81.62ZM57.301 73.85C57.394 73.971 57.571 74.266 57.707 74.329C57.926 74.431 58.049 74.181 58.122 73.915C58.172 73.732 58.199 73.541 58.217 73.454C58.318 72.948 58.419 72.444 58.52 71.939C58.78 70.636 57.263 72.167 56.952 72.497C56.924 72.526 56.897 72.555 56.883 72.593C56.871 72.625 56.87 72.66 56.871 72.693C56.881 73.125 57.038 73.509 57.301 73.85ZM55.571 74.249C55.607 74.294 55.645 74.341 55.697 74.365C55.807 74.416 55.938 74.348 56.015 74.254C56.333 73.864 56.486 73.361 56.534 72.865C56.539 72.811 56.541 72.755 56.548 72.7C56.108 72.966 55.644 73.198 55.17 73.394C55 73.467 55.51 74.173 55.571 74.249ZM50.437 79.522C51.271 79.354 52.106 79.186 52.942 79.017C52.901 78.99 52.862 78.964 52.825 78.938C52.49 78.689 52.154 78.442 51.818 78.193C51.804 78.183 51.789 78.172 51.775 78.161C51.653 78.118 51.526 78.099 51.403 78.134C51.247 78.179 51.129 78.302 51.018 78.421C50.879 78.569 50.741 78.717 50.602 78.867C50.528 78.946 50.452 79.021 50.373 79.088C50.32 79.161 50.268 79.237 50.215 79.309C50.145 79.406 50.067 79.518 49.976 79.612C50.129 79.583 50.283 79.551 50.437 79.522ZM47.846 79.899C48.337 79.881 48.823 79.817 49.307 79.735C49.225 79.684 49.151 79.614 49.081 79.544C49.035 79.498 48.99 79.453 48.945 79.408C48.709 79.173 48.405 78.742 48.041 78.683C47.923 78.747 47.817 78.844 47.721 78.941C47.58 79.079 46.952 79.891 46.739 79.862C47.103 79.91 47.479 79.913 47.846 79.899ZM44.749 79.51C45.086 79.564 45.965 79.999 46.106 79.522C46.243 79.06 45.889 78.568 45.696 78.175C45.494 77.767 45.218 77.433 44.895 78.007C44.718 78.321 44.501 78.611 44.249 78.869C44.214 78.906 44.177 78.942 44.147 78.982C44.116 79.022 44.092 79.064 44.079 79.113C44.006 79.408 44.56 79.48 44.749 79.51ZM46.359 73.428C46.286 73.231 46 73.22 45.82 73.174C45.14 73 44.439 73.112 43.806 73.39C43.728 73.425 43.644 73.466 43.609 73.544C43.585 73.597 43.591 73.66 43.596 73.719C43.679 74.494 43.781 75.265 43.905 76.035C43.918 76.117 43.937 76.205 44.007 76.249C44.099 76.308 44.219 76.248 44.308 76.188C45.017 75.706 45.789 74.844 46.17 74.077C46.248 73.921 46.424 73.607 46.359 73.428ZM54.632 74.234C54.678 74.175 54.821 73.808 54.914 73.603C54.951 73.523 54.98 73.468 54.993 73.468C53.854 73.921 52.664 74.184 51.606 74.273C49.919 74.412 48.307 73.954 46.704 73.497C46.509 74.035 47.051 75.032 47.256 75.536C47.288 75.618 47.329 75.707 47.411 75.74C47.509 75.779 47.618 75.719 47.706 75.661C48.255 75.303 48.725 74.905 49.214 74.469C49.274 74.417 49.353 74.362 49.425 74.391C49.449 74.401 49.468 74.419 49.486 74.437C49.565 74.512 49.964 75.021 50.056 75.021C50.318 75.269 50.588 75.523 50.922 75.662C50.994 75.693 51.072 75.717 51.149 75.704C51.245 75.686 51.321 75.611 51.387 75.537C51.672 75.219 51.873 74.837 52.169 74.521C52.236 74.451 52.32 74.375 52.418 74.391C52.471 74.4 52.515 74.436 52.556 74.47C52.84 74.704 53.189 74.809 53.453 75.084C53.98 75.616 54.334 74.604 54.632 74.234ZM68.552 50.954C68.529 50.974 68.506 50.988 68.483 50.999C68.156 51.162 67.821 50.648 67.612 50.465C67.277 50.171 66.916 49.906 66.546 49.654C65.768 49.125 64.956 48.647 64.209 48.07C62.324 46.616 64.059 44.411 65.514 43.091C66.676 42.039 67.994 40.928 68.243 39.382C68.288 39.099 68.297 38.802 68.422 38.543C68.441 38.505 68.464 38.468 68.489 38.433C68.634 38.23 68.88 38.085 69.116 38.156C70.574 38.592 69.102 43.706 69.043 44.878C68.987 45.978 68.872 47.073 68.815 48.173C68.786 48.74 68.772 49.31 68.787 49.878C68.796 50.202 68.844 50.719 68.552 50.954ZM69.285 87.412C69.286 88.917 69.286 89.668 69.286 91.172C67.318 91.454 65.346 91.704 63.37 91.924C63.37 93.651 63.371 94.516 63.371 96.242C65.106 96.041 66.837 95.826 68.569 95.594C68.569 97.097 68.569 97.849 68.57 99.353C66.838 99.585 65.108 99.802 63.372 100.003C63.372 101.622 63.373 103.242 63.373 104.86C65.349 104.641 67.321 104.391 69.29 104.109C69.291 105.612 69.291 106.366 69.291 107.868C67.322 108.151 65.35 108.401 63.374 108.621C61.85 108.792 60.323 108.943 58.796 109.073C58.795 107.569 58.795 106.818 58.795 105.313C58.794 101 58.794 96.689 58.793 92.377C58.793 90.872 58.792 90.12 58.792 88.615C60.319 88.486 61.846 88.335 63.369 88.163C65.345 87.945 67.317 87.693 69.285 87.412Z" fill="#1C1C1C"/>
</g>
<defs>
<clipPath id="clip0">
<rect width="89" height="110" fill="white"/>
</clipPath>
</defs>
</svg>
