<svg width="1343" height="171" viewBox="0 0 1343 171" fill="none" xmlns="http://www.w3.org/2000/svg">
<path fill-rule="evenodd" clip-rule="evenodd" d="M1342.99 167.183H1308.22L1284.52 102.281H1277.48V167.183H1242.71V2.84717H1248.63H1277.48H1292.31C1317.86 2.88817 1339.16 24.0524 1339.19 49.4479V55.6813C1339.15 71.8422 1330.6 86.9251 1316.79 95.4276C1325.52 119.347 1334.26 143.265 1342.99 167.183ZM1304.43 45.0956C1304.43 38.4423 1299 33.0559 1292.31 33.0559H1277.48V72.0722H1292.31C1299 72.0722 1304.43 66.6859 1304.43 60.0275V45.0956ZM1146.7 167.184V136.975V33.0559V2.84817H1181.47H1226.5V33.0559H1181.47V67.75H1221.03V97.9588H1181.47V136.975H1226.5V167.184H1181.47H1146.7ZM1082.01 170.012C1056.46 169.977 1035.17 148.813 1035.13 123.417V46.6127C1035.17 21.2162 1056.46 0.0530028 1082.01 0.0130005C1107.56 0.0530028 1128.85 21.2162 1128.89 46.6127V59.7965H1094.12V43.3015C1094.12 36.6542 1088.7 31.2668 1082.01 31.2668C1075.32 31.2668 1069.9 36.6542 1069.9 43.3015V125.94C1069.9 132.594 1074.27 138.768 1083.99 138.768C1093.7 138.768 1098.07 132.594 1098.07 125.94V114.504H1084.71V84.297H1128.89V112.706V114.504V123.417C1128.85 148.813 1107.56 169.977 1082.01 170.012ZM959.831 167.158V167.186H956.759H925.061V2.84917H956.759H959.831V2.87817C998.557 3.61421 1019.4 25.4865 1018.91 64.6238V105.411C1019.42 144.745 998.731 166.467 959.831 167.158ZM959.831 33.1209V136.908C975.854 136.488 986.133 127.824 985.716 111.53V57.5694C986.069 41.5904 975.379 33.547 959.831 33.1209ZM872.433 134.686H841.939C840.105 147.685 839.191 154.189 837.357 167.183H806.735C814.457 112.407 822.179 57.6294 829.901 2.84717H854.75H860.523H887.543C894.889 57.6294 902.241 112.407 909.587 167.183H876.795C875.048 154.189 874.18 147.685 872.433 134.686ZM857.562 23.8324C853.779 50.712 849.985 77.5986 846.196 104.477H868.384C864.775 77.5986 861.171 50.712 857.562 23.8324ZM799.097 114.354V120.586C799.057 145.976 777.764 167.147 752.215 167.186H737.378H708.537H704.586H702.614H527.913H500.067H493.143C485.248 145.551 477.346 123.915 469.445 102.279H462.399V167.186H427.629V2.85017H433.552H462.399H477.231H702.614H704.586H737.378H748.264C772.367 1.93611 795.002 22.2323 795.147 46.3687V52.1941C795.147 62.8707 790.999 72.6453 784.121 80.2237C793.105 87.9102 799.554 102.588 799.097 114.354ZM489.343 45.0916C489.343 38.4453 483.923 33.0599 477.231 33.0599H462.399V72.0692H477.231C483.923 72.0692 489.343 66.6779 489.343 60.0305V45.0916ZM685.341 69.5231C686.353 70.2081 687.343 70.9322 688.262 71.7422C688.835 72.2432 689.749 73.6513 690.651 73.2083C690.709 73.1733 690.778 73.1333 690.836 73.0833C691.64 72.4373 691.507 71.0232 691.484 70.1371C691.438 68.575 691.478 67.0209 691.559 65.4638C691.716 62.4517 692.028 59.4505 692.184 56.4373C692.346 53.2281 696.378 39.2223 692.381 38.0272C691.739 37.8362 691.062 38.2272 690.663 38.7853C690.593 38.8833 690.536 38.9853 690.483 39.0903C690.142 39.7973 690.113 40.6154 689.992 41.3904C689.309 45.6227 685.694 48.6579 682.507 51.549C678.527 55.1612 673.766 61.2036 678.938 65.1828C680.98 66.7629 683.207 68.069 685.341 69.5231ZM610.717 144.516C611.556 145.16 612.307 145.913 612.938 146.765C614.164 148.424 615.31 150.186 617.074 151.335C619.33 152.801 621.701 154.267 624.143 155.394C627.683 157.033 631.587 157.901 635.503 157.929C638.407 157.947 641.293 157.51 644.168 157.073L657.559 155.032C659.104 154.795 660.741 154.52 661.892 153.491C663.523 152.019 662.916 149.781 661.047 148.857C658.907 147.799 656.148 148.31 653.961 148.758C652.764 149 651.567 149.242 650.369 149.478C650.728 148.799 651.173 148.154 651.578 147.512C651.792 147.172 652.035 146.851 652.249 146.511C652.446 146.207 652.55 145.862 652.804 145.586C653.048 145.321 653.406 145.132 653.759 145.189C654.037 145.235 654.274 145.413 654.528 145.516C654.725 145.66 654.91 145.833 655.084 145.988C655.569 146.442 656.252 146.885 656.854 146.603C657.126 146.47 657.311 146.223 657.484 145.982C657.698 145.689 657.912 145.39 658.005 145.039C658.288 143.94 657.137 142.589 656.489 141.801C655.87 141.049 654.523 140.41 654.332 139.387C654.32 139.306 654.314 139.214 654.355 139.146C654.395 139.081 654.459 139.048 654.528 139.019C655.008 138.835 655.546 139.042 656.061 139.014C656.836 138.973 657.502 138.404 657.86 137.725C658.161 137.15 658.415 137.007 658.959 137.42C659.838 138.099 660.66 139.49 661.944 139.266C662.933 139.099 663.373 137.956 663.604 136.978C663.87 135.874 666.948 122.068 664.9 121.936C664.767 121.924 664.634 121.988 664.512 122.068C663.789 122.539 663.35 123.408 662.91 124.259C662.806 124.461 662.696 124.662 662.586 124.852C660.885 127.853 658.421 128.309 655.789 129.394C652.955 130.568 650.005 131.355 647.032 131.757C639.078 132.815 631.512 128.309 623.778 130.924C617.942 132.896 614.425 137.42 610.086 141.462C609.774 141.756 609.444 142.066 609.357 142.486C609.184 143.331 610.028 143.992 610.717 144.516ZM635.937 119.309C636.487 118.992 637.146 118.941 637.782 118.902C638.627 118.843 639.495 118.797 640.304 119.051C640.617 119.148 640.923 119.304 641.16 119.533C641.398 119.768 641.542 120.068 641.704 120.361C642.734 122.236 645.701 126.07 648.287 125.047C649.513 124.552 649.675 123.162 649.918 122.029C650.225 120.581 650.323 119.309 651.318 118.113C651.457 117.953 651.601 117.797 651.786 117.688C652.035 117.55 652.33 117.503 652.614 117.503C653.244 117.492 653.956 117.711 654.233 118.28C654.43 118.695 654.343 119.194 654.193 119.637C654.048 120.074 653.834 120.504 653.817 120.976C653.771 121.878 654.679 122.609 655.535 122.626C656.466 122.649 657.258 121.942 657.652 121.149C658.82 118.797 658.427 114.423 657.357 112.083C655.807 108.678 652.249 107.062 648.692 106.59C642.844 105.814 636.544 107.499 631.454 110.351C629.14 111.645 626.121 113.617 625.837 116.526C625.589 119.148 628.238 122.201 630.089 123.77C632.125 125.489 634.08 125.766 636.666 125.294C637.586 125.133 638.546 124.552 638.708 123.628C638.847 122.822 638.309 122.018 637.603 121.592C636.897 121.165 636.059 121.028 635.243 120.907C635.012 120.322 635.393 119.637 635.937 119.309ZM703.875 79.9297C703.481 75.2904 704.708 70.1901 705.459 65.6299C706.362 60.1455 706.634 54.5342 705.882 49.0149C704.91 41.8735 700.722 27.5166 692.323 25.9745C689.5 25.4525 687.609 25.4525 684.942 26.8376C683.45 27.6136 673.905 32.7539 674.472 34.9571C668.474 11.7857 632.194 9.50856 613.094 11.1937C599.252 12.4117 567.375 16.407 561.955 32.2249C561.787 32.6949 561.654 33.1739 561.533 33.663C560.613 33.0699 559.439 32.5709 557.923 32.1109C550.287 29.8388 543.028 26.3885 535.219 29.7807C531.043 31.6039 528.723 34.306 527.375 38.4523C525.495 44.2246 524.743 50.347 524.552 56.3963C524.176 68.165 525.981 79.7687 529.041 91.0723C529.921 94.3155 529.562 96.9437 526.907 99.1048C525.079 100.588 519.884 102.571 519.769 105.275C519.734 106.062 520.284 106.775 520.966 107.171C521.643 107.568 522.441 107.706 523.216 107.837C528.017 108.66 532.813 109.482 537.608 110.3C535.265 109.902 530.071 114.899 528.416 116.279C525.397 118.802 522.765 121.741 520.792 125.14C520.399 125.812 520.023 126.639 520.353 127.341C520.55 127.75 520.937 128.021 521.319 128.267C536.376 138.186 551.971 145.28 570.255 145.822C572.616 145.385 571.835 145.051 574.05 144.492C573.067 141.066 575.785 142.215 565.749 141.491C559.207 141.014 552.376 139.53 546.418 137.093C541.113 134.919 536.7 132.074 533.073 127.646C532.026 126.358 531.332 124.691 531.586 123.057C531.812 121.546 532.795 120.269 533.796 119.114C537.961 114.318 548.251 107.131 535.607 105.584C534.01 105.389 532.489 105.332 531.604 105.205C527.931 104.744 529.116 102.456 530.956 100.497C533.015 98.3058 535.838 96.6377 535.578 93.2465C535.404 91.0153 534.386 88.9452 533.38 86.9391C529.342 78.8596 529.296 68.833 530.158 59.9505C530.834 53.0051 530.539 41.8045 537.602 37.9342C544.491 34.163 553.88 40.8784 559.872 44.3626C560.41 44.6736 560.948 44.9956 561.527 45.2197C562.857 53.9292 566.31 62.3307 571.528 69.4661C574.241 73.1573 577.544 76.8355 577.955 81.3958C578.406 86.4501 575.149 91.0954 574.519 96.1256C573.94 100.773 575.67 105.47 578.342 109.328C581.182 113.44 585.439 118.413 590.107 120.194C593.826 121.615 598.535 121.817 602.445 122.489C606.292 123.15 610.179 123.524 614.054 123.938C617.386 124.294 621.476 125.61 624.75 125.127C625.178 125.065 625.699 124.886 625.756 124.454C625.785 124.237 625.675 124.03 625.56 123.845C624.108 121.534 622.06 120.856 621.568 117.757C620.527 111.167 626.757 107.66 632.345 105.648C641.473 102.347 633.409 95.6486 630.534 90.5793C626.873 84.1269 624.357 76.9235 623.142 69.6261C621.563 60.1225 621.522 50.233 617.907 41.1654C616.01 36.4111 613.042 32.2249 609.352 28.6777C607.477 26.8716 605.453 25.2335 603.359 23.6874C602.017 22.6923 597.54 20.8242 599.096 18.7311C599.622 18.0181 600.513 17.684 601.358 17.397C612.741 13.5728 625.08 13.0678 636.978 14.7289C637.805 14.8489 638.685 14.9939 639.304 15.5509C641.288 17.328 636.33 24.8425 635.492 26.8376C633.959 30.5008 633.189 34.473 633.247 38.4283C633.351 45.9787 636.365 52.9861 638.76 60.0185C641.131 66.9929 641.16 73.8523 643.272 80.7867C644.064 83.8509 644.463 86.9271 643.891 90.0553C643.503 92.1774 643.087 94.3155 643.017 96.4767C642.948 98.8868 642.711 101.163 645.152 101.865C648.16 102.733 651.272 102.778 654.164 104.118C656.813 105.349 658.959 107.418 660.018 110.155C660.81 112.209 660.012 117.319 662.979 117.699C666.19 118.113 671.748 111.133 673.373 108.724C676.526 104.061 677.526 98.4268 677.775 92.9125C678.215 83.3449 673.611 74.6804 673.125 65.2568C672.871 60.3415 673.801 55.4823 674.501 50.641C674.813 48.4378 674.761 46.3057 675.889 44.4726C677.168 42.4075 679.695 40.5384 681.396 38.7913C684.491 35.5891 690.727 29.4487 694.723 33.743C700.577 40.0434 702.937 49.9459 702.66 58.3624C702.388 66.6199 698.9 75.2444 695.956 82.8679C694.417 86.8411 693.52 91.0273 692.624 95.1886C691.195 101.859 689.766 108.534 688.337 115.21C692.213 108.413 697.737 102.549 704.314 98.2648C701.491 97.3557 699.097 95.2296 697.882 92.5444C702.423 91.3714 706.778 89.4803 710.729 86.9671C707.085 87.4441 704.187 83.5759 703.875 79.9297ZM560.445 65.4408C558.282 61.4216 555.551 56.5813 551.751 53.8212C547.875 50.998 544.486 49.5659 542.155 44.8556C541.871 44.2886 541.57 43.6496 540.98 43.3845C540.813 43.3165 540.651 43.2825 540.489 43.2765C539.372 43.2355 538.476 44.7256 538.152 45.9607C536.463 52.4231 536.035 59.2095 536.896 65.8419C537.157 67.862 537.539 69.8791 538.227 71.7992C538.996 73.9613 543.08 83.0059 546.036 82.6499C547.731 82.4368 550.86 75.4684 552.358 73.8583C553.585 72.5413 561.619 67.621 560.445 65.4408ZM760.377 42.3045C760.377 36.0951 754.957 31.0578 748.264 31.0578H737.378V67.499H748.264C754.957 67.499 760.377 62.4677 760.377 56.2583V42.3045ZM764.327 110C764.327 103.348 758.908 97.9608 752.215 97.9608H737.378V136.978H752.215C758.908 136.978 764.327 131.585 764.327 124.938V110ZM659.667 100.378C657.37 99.6129 656.265 97.1697 654.125 96.2497C653.552 96.0026 652.899 96.0426 652.28 95.9736C651.661 95.9046 650.978 95.6746 650.707 95.1106C650.429 94.5536 650.666 93.8645 651.088 93.4095C651.51 92.9605 652.083 92.6844 652.633 92.3864C655.878 90.6263 658.475 87.5791 661.043 84.982C663.23 82.7609 665.492 80.1857 668.586 79.7537C668.91 79.7067 669.256 79.6907 669.534 79.8637C670.055 80.1737 670.049 80.9498 669.766 81.4898C669.483 82.0248 669.003 82.4328 668.708 82.9619C667.707 84.768 670.05 87.7752 670.362 89.6833C670.831 92.5754 669.865 95.3126 667.962 97.5087C665.885 99.9239 662.854 101.448 659.667 100.378ZM664.375 86.8611C664.19 86.9411 664.017 87.0501 663.855 87.1711C663.548 87.4011 663.282 87.6941 663.016 87.9642C661.518 89.4763 659.759 90.7183 657.839 91.6444C655.704 92.6564 655.727 94.2365 656.855 96.1346C657.283 96.8707 657.873 97.5837 658.654 97.7047C659.563 97.8467 660.419 97.1357 660.968 96.3067C661.518 95.4796 661.888 94.5066 662.489 93.7305C663.097 92.9505 664.08 92.3864 664.93 92.7654C666.006 93.2425 664.34 96.1867 663.75 96.5547C662.9 97.0997 660.494 96.6407 660.621 98.4348C661.836 98.7278 663.305 98.9628 664.468 98.3378C665.468 97.8017 666.319 96.9227 666.88 95.8526C667.817 94.0705 668.933 84.832 664.375 86.8611ZM608.305 89.7253C610.203 91.0494 612.123 92.3944 614.269 93.3145C615.281 93.7455 616.351 94.1425 617.456 94.2515C618.364 94.3495 619.597 94.0445 620.337 94.7346C620.684 95.0616 620.753 95.7006 620.366 95.9766C620.181 96.1036 619.938 96.1206 619.707 96.1376C617.202 96.2867 614.286 96.5167 611.949 95.3556C611.585 95.2176 611.221 95.0676 610.856 94.9066C608.317 93.8325 605.91 93.2685 603.145 92.9125C602.631 92.8495 602.104 92.7854 601.595 92.8545C600.005 93.0675 598.784 94.5446 598.524 96.1136C598.258 97.6897 598.796 99.3058 599.623 100.669C600.762 102.549 602.608 104.061 604.673 104.837C605.801 105.251 609.931 106.164 610.069 103.974C610.098 103.538 609.792 103.153 609.422 102.934C609.046 102.716 608.618 102.623 608.201 102.514C607.38 102.296 606.587 101.951 605.858 101.508C604.997 100.979 604.146 100.11 604.32 99.1168C604.58 97.5867 606.333 97.8967 607.015 98.9538C607.334 99.4548 607.409 100.07 607.657 100.611C608.068 101.508 608.97 102.157 609.942 102.324C611.707 102.635 613.517 101.186 615.119 100.616C615.455 100.495 615.767 100.347 616.068 100.174C615.542 108.177 604.314 109.12 599.328 105.561C596.146 103.285 594.272 98.7418 596.441 95.1246C597.164 93.9125 598.582 93.1815 598.437 91.5954C598.154 88.3872 594.891 91.0544 593.052 90.3763C592.346 90.1113 591.75 89.4563 591.727 88.7032C591.704 87.9902 592.19 87.3291 592.809 86.9621C593.428 86.5881 594.156 86.4611 594.874 86.3741C599.536 85.821 604.459 87.0351 608.305 89.7253ZM623.013 134.533C624.749 133.769 626.669 133.464 628.538 133.935C629.029 134.067 629.81 134.096 630.007 134.638C630.192 135.131 629.706 135.988 629.492 136.413C628.445 138.512 626.334 140.875 624.39 142.197C624.141 142.359 623.817 142.526 623.563 142.364C623.372 142.249 623.32 142.003 623.285 141.778C622.944 139.674 622.666 137.552 622.441 135.437C622.423 135.276 622.406 135.103 622.475 134.953C622.568 134.74 622.799 134.631 623.013 134.533ZM624.229 149.541C624.917 148.835 625.513 148.036 625.999 147.178C626.884 145.615 627.642 146.524 628.191 147.639C628.723 148.719 629.689 150.059 629.319 151.33C628.931 152.635 626.519 151.445 625.6 151.296C625.079 151.209 623.564 151.012 623.76 150.208C623.795 150.075 623.864 149.955 623.951 149.851C624.032 149.737 624.13 149.64 624.229 149.541ZM644.396 136.947C647.294 136.705 650.55 135.986 653.674 134.745C653.639 134.745 653.558 134.901 653.46 135.12C653.205 135.676 652.812 136.683 652.685 136.844C651.869 137.856 650.897 140.632 649.457 139.173C648.728 138.419 647.774 138.131 646.993 137.494C646.883 137.396 646.762 137.303 646.617 137.275C646.351 137.23 646.119 137.436 645.934 137.631C645.125 138.499 644.575 139.54 643.794 140.414C643.609 140.615 643.401 140.822 643.135 140.868C642.926 140.909 642.712 140.839 642.522 140.754C641.602 140.38 640.861 139.684 640.144 138.999C639.89 138.999 638.796 137.603 638.582 137.401C638.53 137.349 638.478 137.303 638.415 137.28C638.212 137.189 637.998 137.344 637.836 137.494C636.494 138.685 635.204 139.769 633.7 140.754C633.457 140.914 633.162 141.081 632.89 140.966C632.671 140.879 632.555 140.632 632.468 140.414C631.907 139.028 630.42 136.298 630.958 134.825C635.349 136.079 639.768 137.333 644.396 136.947ZM633.738 149.732C634.005 149.473 634.299 149.207 634.623 149.025C635.618 149.196 636.451 150.375 637.099 151.012C637.221 151.14 637.348 151.266 637.469 151.387C637.66 151.583 637.863 151.773 638.088 151.915C636.764 152.14 635.433 152.313 634.085 152.359C633.085 152.393 632.049 152.388 631.054 152.261C631.633 152.335 633.357 150.117 633.738 149.732ZM641.011 150.146C641.231 149.961 641.439 149.748 641.642 149.53C642.023 149.127 642.399 148.719 642.781 148.31C643.082 147.988 643.406 147.649 643.834 147.528C644.175 147.431 644.517 147.488 644.852 147.598C644.893 147.627 644.933 147.661 644.974 147.689C645.893 148.368 646.813 149.046 647.733 149.726C647.831 149.799 647.947 149.875 648.051 149.944C645.766 150.409 643.475 150.869 641.185 151.329C640.762 151.41 640.346 151.495 639.924 151.583C640.172 151.317 640.386 151.008 640.577 150.742C640.728 150.548 640.867 150.341 641.011 150.146ZM657.938 132.643C657.915 132.793 657.909 132.943 657.898 133.098C657.77 134.448 657.348 135.829 656.475 136.898C656.267 137.156 655.908 137.34 655.607 137.208C655.463 137.139 655.358 137.007 655.26 136.886C655.092 136.679 653.693 134.742 654.161 134.546C655.463 134.006 656.729 133.373 657.938 132.643ZM659.042 132.085C659.898 131.182 664.057 126.986 663.34 130.557C663.062 131.941 662.784 133.321 662.513 134.708C662.461 134.949 662.391 135.472 662.252 135.972C662.05 136.702 661.714 137.386 661.113 137.105C660.737 136.932 660.257 136.127 660.002 135.794C659.279 134.857 658.851 133.81 658.822 132.626C658.816 132.534 658.822 132.443 658.857 132.35C658.892 132.247 658.967 132.167 659.042 132.085ZM377.493 134.686H346.991C345.157 147.685 344.243 154.189 342.41 167.183H311.788C319.509 112.407 327.231 57.6294 334.954 2.84717H359.804H365.577H392.596L414.639 167.183H381.848C380.107 154.189 379.234 147.685 377.493 134.686ZM362.621 23.8324C358.832 50.712 355.037 77.5986 351.249 104.477H373.438C369.828 77.5986 366.225 50.712 362.621 23.8324ZM256.615 167.184H221.851V136.975V2.84817H256.615V136.975H303.26L299.229 167.184H256.615ZM154.992 170.013C129.443 169.973 108.151 148.815 108.11 123.418V46.6147C108.151 21.2182 129.443 0.055003 154.992 0.0140005C180.542 0.055003 201.835 21.2182 201.875 46.6147V123.418C201.835 148.815 180.542 169.973 154.992 170.013ZM167.105 43.3025C167.105 36.6562 161.679 31.2628 154.992 31.2628C148.3 31.2628 142.88 36.6562 142.88 43.3025V126.731C142.88 133.377 148.3 138.77 154.992 138.77C161.679 138.77 167.105 133.377 167.105 126.731V43.3025ZM44.6755 126.815H35.7616V167.183H0.992004V126.815V96.6127V33.0559V2.84717H35.7616H44.6755C70.2192 2.88817 91.512 24.0524 91.552 49.4479V80.2147C91.512 105.609 70.2192 126.775 44.6755 126.815ZM56.7824 45.0956C56.7824 38.4423 51.3624 33.0559 44.6755 33.0559H35.7616V96.6127H44.6755C51.3624 96.6067 56.7824 91.2134 56.7824 84.567V45.0956Z" fill="white"/>
</svg>
