<svg xmlns="http://www.w3.org/2000/svg" width="769" height="615" viewBox="0 0 769 615">
  <defs>
    <style>
      .cls-1 {
        fill: #fff;
        fill-rule: evenodd;
      }
    </style>
  </defs>
  <path id="Logo" class="cls-1" d="M742.96,581.136a110.908,110.908,0,0,0,14.718-7.487c-0.069.581-.086,1.19-0.146,1.779-0.5,5.327-2.136,10.766-5.553,14.965-0.812,1.007-2.213,1.736-3.381,1.2a3.854,3.854,0,0,1-1.357-1.259c-0.649-.814-6.106-8.422-4.281-9.2m19.025-9.68a3.466,3.466,0,0,0-.727,1.04,3.009,3.009,0,0,0-.129,1.076,21.019,21.019,0,0,0,4.6,12.466c0.994,1.319,2.879,4.476,4.341,5.163,2.326,1.092,3.649-1.606,4.436-4.469,0.528-1.96.813-4.016,1.012-4.971q1.621-8.159,3.234-16.318c2.785-14.044-13.43,2.455-16.768,6.013m-85.536,74.476c-2.515-2.533-5.758-7.182-9.65-7.825a16.047,16.047,0,0,0-3.433,2.784c-1.5,1.493-8.215,10.228-10.481,9.933a69.644,69.644,0,0,0,11.821.391,118.171,118.171,0,0,0,15.618-1.752A14.712,14.712,0,0,1,677.9,647.4c-0.484-.494-0.969-0.98-1.454-1.466m30.7-13.09c-0.156-.122-0.312-0.235-0.467-0.348a6.427,6.427,0,0,0-3.961-.286,9.549,9.549,0,0,0-4.125,3.08c-1.479,1.605-2.958,3.2-4.436,4.806a30.36,30.36,0,0,1-2.456,2.394c-0.562.789-1.107,1.6-1.687,2.377a32.557,32.557,0,0,1-2.551,3.279c1.643-.329,3.278-0.659,4.921-1q13.385-2.721,26.765-5.44c-0.433-.286-0.856-0.556-1.247-0.841q-5.37-4.02-10.756-8.024m-73.973-2a44.465,44.465,0,0,1-6.9,9.291,15.9,15.9,0,0,0-1.09,1.2,4.056,4.056,0,0,0-.726,1.414c-0.779,3.184,5.144,3.955,7.16,4.279,3.589,0.588,12.989,5.273,14.5.128,1.462-4.979-2.317-10.28-4.393-14.522-2.145-4.381-5.1-7.981-8.552-1.8m9.884-52.095c-7.256-1.866-14.753-.66-21.517,2.341a3.759,3.759,0,0,0-2.1,1.648,3.8,3.8,0,0,0-.138,1.9q1.322,12.5,3.294,24.941a3.173,3.173,0,0,0,1.09,2.324c0.985,0.627,2.266-.008,3.225-0.666,7.576-5.206,15.817-14.489,19.882-22.739,0.839-1.691,2.715-5.066,2.015-7-0.762-2.126-3.824-2.246-5.751-2.749m9.452,3.486c-2.093,5.8,3.7,16.545,5.889,21.976a3.553,3.553,0,0,0,1.661,2.194c1.046,0.434,2.205-.216,3.147-0.85a135.445,135.445,0,0,0,16.119-12.831c0.631-.573,1.479-1.179,2.258-0.841a2.185,2.185,0,0,1,.648.485c0.839,0.816,5.111,6.291,6.088,6.291,2.8,2.679,5.682,5.412,9.253,6.913a4.35,4.35,0,0,0,2.413.443,4.813,4.813,0,0,0,2.551-1.787c3.044-3.427,5.2-7.547,8.354-10.949,0.708-.772,1.626-1.57,2.655-1.406a3.409,3.409,0,0,1,1.479.851c3.026,2.524,6.762,3.661,9.589,6.611,5.622,5.734,9.41-5.171,12.584-9.161,0.51-.633,2.032-4.59,3.026-6.785a4.223,4.223,0,0,1,.839-1.465,127.7,127.7,0,0,1-36.182,8.667c-18.013,1.5-35.257-3.428-52.371-8.356M806.106,404.622c1.833,11.374-1.928,22.165-9.332,30.805-8.128,9.482-19.915,15.477-32.341,11.3-8.961-3.028-13.266-12.641-21.6-16.24-2.239-.972-4.773-0.824-7.2-1.093s-5.067-1.2-6.139-3.393-0.156-4.909,1.487-6.687,3.891-2.864,6.019-4.034c12.659-6.932,22.778-18.931,32.783-29.15,8.536-8.718,17.348-18.859,29.412-20.56a5.7,5.7,0,0,1,3.709.416c2.024,1.242,2,4.3.891,6.4s-2.983,3.713-4.134,5.8c-3.908,7.114,5.24,18.929,6.443,26.442m-23.323-11.1a10.209,10.209,0,0,0-2.032,1.24,33.812,33.812,0,0,0-3.286,3.114,72.338,72.338,0,0,1-20.184,14.462c-8.3,4-8.207,10.22-3.831,17.68,1.695,2.881,3.986,5.7,7.039,6.186,3.528,0.547,6.858-2.256,9.011-5.517s3.572-7.08,5.941-10.133,6.2-5.266,9.5-3.792c4.177,1.865-2.309,13.448-4.592,14.914-3.338,2.142-12.695.328-12.2,7.39,4.749,1.155,10.448,2.073,15.013-.39a23.265,23.265,0,0,0,9.383-9.759c3.65-7.02,8-43.386-9.763-35.4m-270.917-1.909a19.723,19.723,0,0,0-8.06,2.308c-2.4,1.458-4.307,4.059-4.212,6.879,0.087,2.959,2.4,5.534,5.154,6.559,7.178,2.671,19.9-7.825,21,4.8,0.545,6.246-4.946,9.11-7.783,13.89-8.44,14.235-1.15,32.107,11.25,41.05,19.441,14.02,63.2,10.3,65.266-21.177a23.683,23.683,0,0,1-3.71,1.728c-6.244,2.255-13.309,7.946-20.167,6.741a12.25,12.25,0,0,1-8.924-6.768c-0.961-2.117-1.255-4.528-2.508-6.5-2.629-4.163-9.469-5.378-10.507.617-0.675,3.9,2.646,7.339,6.018,9.411a34.622,34.622,0,0,0,9.115,3.966,18.386,18.386,0,0,1,4.757,1.639,4.7,4.7,0,0,1,2.534,4.085c-0.537,8.659-16.656,5.059-21.032,3.4a39.62,39.62,0,0,1-19.682-16.379c-3.226-5.378-5.318-11.729-4.3-17.924s5.768-11.988,11.968-12.821a22.962,22.962,0,0,1,6.063.216,108.945,108.945,0,0,1,30.059,7.869c1.41,0.608,2.828,1.215,4.263,1.753,9.1,4.572,20.452,3.652,30.242,3.079a4.873,4.873,0,0,0,2.559-.641c1.514-1.067,1.228-3.593-.113-4.867-2.879-2.734-7.7-1.552-11.232-1.918a42.149,42.149,0,0,1-12.437-3.686c-8.335-3.626-15.842-8.909-23.244-14.123a76.492,76.492,0,0,0-52.336-13.187m463.053,6.819c-0.9,5.725-34.72,27.188-39.3,24.135a27.856,27.856,0,0,0,6.867,3.34l25.985,8.441L945.638,449.36a179.038,179.038,0,0,0-49.751,48.85c-6.07,8.989-8.4,17.386-17.71,24.144-7.853,5.689-17.037,9.351-25.719,13.533a175.805,175.805,0,0,0-37.851,24.767c-15.748,13.5-27.6,37.7-25.027,58.993,2.223,18.365,5.561,34.509-8.95,49.232-8.44,8.554-20.374,13.906-31.9,16.682-10.87,2.619-21.351,2.35-32.256,4.189-26.817,4.538-53.115,8.71-80.3,4.538-12.669-1.952-25.434-4.859-36.554-11.251-5.743-3.306-10.949-7.487-16.561-11.019a171.472,171.472,0,0,0-17.408-9.143q-10.4-4.957-20.781-9.916c-16.872-8.05-33.536-9.752-52.016-10.792-52.924-2.984-108.556-1.483-159.681-17.35C292,612.03,253.7,591.2,217.884,567.378a22.305,22.305,0,0,1-8.353-9c-4.393-9.353.57-17.975,2.2-20.821a145.411,145.411,0,0,1,32.637-38.336c0.882-.745,2.058-1.8,3.441-3.018,1.332-1.188,2.664-2.352,3.978-3.5l-21.481-3.7c-3.563-.626-8.449-1.459-13.188-4.244-7.186-4.242-11.441-11.65-11.112-19.345,0.623-14.731,15.134-23.294,25.744-29.539a77.422,77.422,0,0,0,6.858-4.339c4.679-3.85,6.694-7.858,3.978-18.018-13.473-50.246-19.336-96.12-17.944-140.26,0.9-28.471,4.7-52.745,11.623-74.234,6.546-20.265,18.558-33.633,37.79-42.075a78.865,78.865,0,0,1,32.265-6.7c18.1,0,35.2,5.595,51.749,11.018,4.436,1.448,9.01,2.949,13.49,4.3,0.943,0.286,1.876.581,2.775,0.876,21.507-45.223,91.192-73.357,207.392-83.7,13.126-1.17,26.895-1.76,40.9-1.76,51.082,0,166.521,8.614,204.044,83.23,1.816-1.319,3.7-2.611,5.6-3.9,11.268-7.529,23.28-13.871,24.612-14.574,8.111-4.251,15.358-6.15,23.5-6.15a74.6,74.6,0,0,1,13.716,1.474c50.39,9.335,62.921,98.021,63.44,101.8,2.879,21.367,2.3,44.659-1.722,69.245-0.579,3.567-1.227,7.226-1.893,10.93-2.568,14.331-5.224,29.159-4.143,42.12,0.511,6.046,5.008,11.649,9.634,15.337,3.269,2.612,7.135,4.407,10.342,7.079,3.2,2.69,5.8,6.7,5.146,10.844M784.832,531.506a2.6,2.6,0,0,0-1.53.546c-2.819,1.848-4.514,5.266-6.235,8.606-0.415.8-.822,1.579-1.254,2.343-6.642,11.8-16.24,13.585-26.489,17.861a135.557,135.557,0,0,1-34.167,9.284c-30.993,4.172-60.482-13.56-90.637-3.271-22.735,7.764-36.45,25.566-53.365,41.468-1.219,1.135-2.5,2.394-2.837,4.024-0.692,3.314,2.612,5.926,5.293,7.982a43.376,43.376,0,0,1,8.647,8.849c4.8,6.541,9.244,13.455,16.146,17.983a224.56,224.56,0,0,0,27.552,15.971,106.626,106.626,0,0,0,44.268,9.968c11.336,0.086,22.579-1.64,33.769-3.356q26.125-4.022,52.233-8.043c6.01-.919,12.392-2.013,16.863-6.056,6.382-5.785,4-14.574-3.278-18.226-8.336-4.181-19.085-2.151-27.629-.416l-14.01,2.846c1.419-2.655,3.14-5.2,4.731-7.729,0.838-1.338,1.764-2.621,2.611-3.94a23.9,23.9,0,0,1,2.154-3.652A4.316,4.316,0,0,1,741.4,623a14.942,14.942,0,0,1,2.992,1.283c0.76,0.573,1.487,1.241,2.162,1.866,1.9,1.77,4.565,3.522,6.908,2.411a7.044,7.044,0,0,0,2.456-2.445,11.245,11.245,0,0,0,2.016-3.7c1.115-4.338-3.364-9.638-5.9-12.744-2.421-2.983-7.662-5.464-8.4-9.5a1.079,1.079,0,0,1,.761-1.441c1.868-.737,3.969.078,5.984-0.025,3.009-.148,5.6-2.413,7-5.093,1.177-2.229,2.171-2.81,4.29-1.17,3.424,2.646,6.633,8.128,11.623,7.26,3.865-.677,5.569-5.179,6.477-9.013,1.029-4.346,13.032-58.636,5.058-59.191M743.1,522.475a19.406,19.406,0,0,0-1.479,5.266c-0.173,3.548,3.364,6.42,6.693,6.5,3.641,0.079,6.737-2.707,8.259-5.821,4.548-9.256,3.027-26.45-1.142-35.672-6.063-13.378-19.924-19.754-33.787-21.6-22.8-3.036-47.364,3.566-67.193,14.8-9.012,5.1-20.79,12.856-21.887,24.3-1,10.306,9.348,22.331,16.56,28.489,7.93,6.767,15.557,7.842,25.632,6.021,3.6-.66,7.333-2.941,7.965-6.558,0.552-3.184-1.557-6.351-4.307-8.034s-6.02-2.194-9.2-2.68c-0.918-2.308.588-5.006,2.715-6.272s4.713-1.467,7.177-1.631c3.3-.209,6.694-0.425,9.841.59a8.168,8.168,0,0,1,3.33,1.89,13.62,13.62,0,0,1,2.136,3.263c4,7.382,15.584,22.477,25.667,18.417,4.774-1.918,5.395-7.4,6.339-11.858,1.218-5.693,1.582-10.681,5.482-15.391a6.918,6.918,0,0,1,1.808-1.674,6.522,6.522,0,0,1,3.226-.737c2.464-.035,5.231.814,6.295,3.044,0.8,1.649.45,3.618-.129,5.353M642.4,550.132c-0.113.156-.26,0.321-0.39,0.485,0.321-.017.649-0.034,0.978-0.042-0.2-.14-0.389-0.3-0.588-0.443M875.9,334.049c2.232,1.978,5.8,7.513,9.287,5.77a3.582,3.582,0,0,0,.753-0.486c3.122-2.542,2.6-8.112,2.5-11.607-0.156-6.126-.01-12.259.311-18.375,0.6-11.85,1.825-23.657,2.43-35.509,0.64-12.621,16.353-67.735.778-72.437-2.517-.755-5.145.789-6.7,2.983a9.544,9.544,0,0,0-.709,1.206c-1.332,2.785-1.427,5.979-1.911,9.041-2.655,16.647-16.752,28.61-29.169,39.967-15.531,14.218-34.072,37.97-13.932,53.647,7.982,6.2,16.656,11.356,24.975,17.072a115.7,115.7,0,0,1,11.389,8.728m87.576,59.893c-14.2,1.876-25.511-13.35-26.712-27.673C935.243,348.025,940,327.924,942.93,310c3.521-21.576,4.585-43.654,1.662-65.369-3.8-28.1-20.124-84.583-52.855-90.647-11.009-2.038-18.386-2.047-28.789,3.4-5.811,3.054-43.014,23.275-40.792,31.934C798.747,98.17,657.329,89.2,582.881,95.827c-53.963,4.8-178.231,20.526-199.366,82.753-0.641,1.857-1.167,3.739-1.625,5.648a55.215,55.215,0,0,0-14.088-6.082c-29.757-8.952-58.061-22.52-88.492-9.169-16.284,7.14-25.338,17.81-30.588,34.094-7.324,22.72-10.256,46.811-11,70.6-1.461,46.317,5.578,91.949,17.5,136.436,3.408,12.752,2.024,23.084-8.327,31.595-7.109,5.839-27.371,13.655-27.82,24.273-0.13,3.088,2.015,5.9,4.661,7.461s5.759,2.108,8.795,2.637q28.044,4.827,56.089,9.663c-9.141-1.56-29.368,18.1-35.836,23.546a131.858,131.858,0,0,0-29.723,34.848c-1.53,2.656-3,5.891-1.694,8.666a9.741,9.741,0,0,0,3.744,3.636c58.71,39.013,119.486,66.946,190.761,69.064,9.21-1.727,6.158-3.028,14.814-5.215-3.848-13.5,6.745-8.97-32.369-11.833-25.512-1.865-52.137-7.7-75.348-17.289-20.7-8.537-37.894-19.754-52.025-37.182-4.09-5.058-6.788-11.617-5.811-18.045,0.9-5.933,4.713-10.965,8.622-15.5,16.24-18.877,56.349-47.15,7.065-53.24-6.235-.773-12.168-1-15.618-1.485-14.321-1.795-9.677-10.824-2.508-18.528,8.017-8.606,19.017-15.175,18-28.524-0.666-8.78-4.653-16.926-8.561-24.821-15.739-31.769-15.93-71.216-12.557-106.168,2.62-27.317,1.479-71.4,29-86.622,26.851-14.851,63.448,11.582,86.823,25.3a45.446,45.446,0,0,0,6.443,3.349,219.066,219.066,0,0,0,39,95.385c10.559,14.557,23.436,29.027,25.036,46.942,1.772,19.882-10.931,38.171-13.378,57.976-2.266,18.278,4.479,36.757,14.874,51.929,11.085,16.189,27.69,35.742,45.885,42.743,14.5,5.588,32.852,6.393,48.1,9.041,14.987,2.592,30.138,4.067,45.255,5.69,12.971,1.4,28.935,6.584,41.672,4.693,1.7-.243,3.719-0.954,3.936-2.646a3.839,3.839,0,0,0-.752-2.421c-5.683-9.074-13.656-11.746-15.567-23.943-4.064-25.912,20.236-39.706,41.994-47.645,35.594-12.969,4.16-39.314-7.048-59.269a253.265,253.265,0,0,1-28.814-82.449c-6.149-37.39-6.314-76.29-20.41-111.971-7.384-18.7-18.955-35.161-33.336-49.127a240.187,240.187,0,0,0-23.358-19.633c-5.232-3.921-22.692-11.269-16.647-19.493,2.067-2.8,5.544-4.129,8.839-5.249,44.371-15.043,92.469-17.02,138.848-10.489,3.226,0.452,6.65,1.043,9.063,3.229,7.722,7-11.605,36.557-14.865,44.416A115.319,115.319,0,0,0,661.428,203c0.407,29.678,12.168,57.265,21.491,84.921,9.244,27.432,9.374,54.429,17.6,81.713,3.1,12.05,4.643,24.135,2.412,36.436-1.522,8.363-3.139,16.778-3.389,25.288-0.294,9.464-1.211,18.444,8.31,21.211,11.727,3.4,23.833,3.583,35.11,8.85,10.343,4.831,18.7,12.986,22.839,23.751,3.1,8.086-.017,28.178,11.553,29.687,12.5,1.631,34.176-25.851,40.515-35.326,12.271-18.329,16.163-40.5,17.157-62.2,1.7-37.641-16.232-71.726-18.134-108.8-0.986-19.33,2.646-38.441,5.361-57.491,1.237-8.666,1.012-17.056,5.431-24.281,4.955-8.121,14.83-15.46,21.447-22.358,12.055-12.578,36.372-36.766,51.947-19.84,22.839,24.785,32.031,63.737,30.942,96.86-1.064,32.478-14.641,66.417-26.125,96.382-5.993,15.641-9.5,32.114-12.981,48.494q-8.365,39.389-16.734,78.762a194.924,194.924,0,0,1,62.291-66.66,42.136,42.136,0,0,1-25.079-22.5,174.734,174.734,0,0,0,50.088-21.949M629.4,520.558l0.345,0.72,0.268,0.52c-0.216-.408-0.415-0.822-0.613-1.24M377.652,309.273c-8.457-15.815-19.086-34.866-33.908-45.745-15.116-11.1-28.313-16.735-37.393-35.248-1.107-2.255-2.291-4.763-4.583-5.777a5.263,5.263,0,0,0-1.911-.46c-4.35-.147-7.861,5.716-9.115,10.559a207.373,207.373,0,0,0-4.9,78.232,113.952,113.952,0,0,0,5.18,23.433c3.009,8.518,18.93,44.1,30.449,42.68,6.606-.814,18.8-28.246,24.654-34.578,4.782-5.171,36.1-24.551,31.53-33.1" transform="translate(-206 -81)"/>
</svg>
